<svg width="1363" height="163" viewBox="0 0 1363 163" fill="none" xmlns="http://www.w3.org/2000/svg">
<path d="M0 15C0 6.71573 6.71573 0 15 0H37V163H15C6.71573 163 0 156.284 0 148V15Z" fill="#424242"/>
<rect width="1097" height="163" transform="translate(37)" fill="#F0F0F0"/>
<path d="M101.906 53.9219L94.3945 51.2383V48.0859L104.602 52.375V54.6367L101.906 53.9219ZM94.3945 56.1719L101.918 53.4297L104.602 52.7852V55.0352L94.3945 59.3242V56.1719ZM112.898 43.9375H119.262C120.566 43.9375 121.688 44.1328 122.625 44.5234C123.57 44.9141 124.297 45.4922 124.805 46.2578C125.312 47.0234 125.566 47.9648 125.566 49.082C125.566 49.9961 125.41 50.7812 125.098 51.4375C124.793 52.0859 124.359 52.6289 123.797 53.0664C123.242 53.4961 122.59 53.8398 121.84 54.0977L120.727 54.6836H115.195L115.172 51.9414H119.285C119.902 51.9414 120.414 51.832 120.82 51.6133C121.227 51.3945 121.531 51.0898 121.734 50.6992C121.945 50.3086 122.051 49.8555 122.051 49.3398C122.051 48.793 121.949 48.3203 121.746 47.9219C121.543 47.5234 121.234 47.2188 120.82 47.0078C120.406 46.7969 119.887 46.6914 119.262 46.6914H116.414V61H112.898V43.9375ZM122.438 61L118.547 53.3945L122.262 53.3711L126.199 60.8359V61H122.438ZM133.898 61.2344C132.914 61.2344 132.031 61.0781 131.25 60.7656C130.469 60.4453 129.805 60.0039 129.258 59.4414C128.719 58.8789 128.305 58.2266 128.016 57.4844C127.727 56.7344 127.582 55.9375 127.582 55.0938V54.625C127.582 53.6641 127.719 52.7852 127.992 51.9883C128.266 51.1914 128.656 50.5 129.164 49.9141C129.68 49.3281 130.305 48.8789 131.039 48.5664C131.773 48.2461 132.602 48.0859 133.523 48.0859C134.422 48.0859 135.219 48.2344 135.914 48.5312C136.609 48.8281 137.191 49.25 137.66 49.7969C138.137 50.3438 138.496 51 138.738 51.7656C138.98 52.5234 139.102 53.3672 139.102 54.2969V55.7031H129.023V53.4531H135.785V53.1953C135.785 52.7266 135.699 52.3086 135.527 51.9414C135.363 51.5664 135.113 51.2695 134.777 51.0508C134.441 50.832 134.012 50.7227 133.488 50.7227C133.043 50.7227 132.66 50.8203 132.34 51.0156C132.02 51.2109 131.758 51.4844 131.555 51.8359C131.359 52.1875 131.211 52.6016 131.109 53.0781C131.016 53.5469 130.969 54.0625 130.969 54.625V55.0938C130.969 55.6016 131.039 56.0703 131.18 56.5C131.328 56.9297 131.535 57.3008 131.801 57.6133C132.074 57.9258 132.402 58.168 132.785 58.3398C133.176 58.5117 133.617 58.5977 134.109 58.5977C134.719 58.5977 135.285 58.4805 135.809 58.2461C136.34 58.0039 136.797 57.6406 137.18 57.1562L138.82 58.9375C138.555 59.3203 138.191 59.6875 137.73 60.0391C137.277 60.3906 136.73 60.6797 136.09 60.9062C135.449 61.125 134.719 61.2344 133.898 61.2344ZM144.328 51.0273V61H140.953V48.3203H144.117L144.328 51.0273ZM143.836 54.2148H142.922C142.922 53.2773 143.043 52.4336 143.285 51.6836C143.527 50.9258 143.867 50.2812 144.305 49.75C144.742 49.2109 145.262 48.8008 145.863 48.5195C146.473 48.2305 147.152 48.0859 147.902 48.0859C148.496 48.0859 149.039 48.1719 149.531 48.3438C150.023 48.5156 150.445 48.7891 150.797 49.1641C151.156 49.5391 151.43 50.0352 151.617 50.6523C151.812 51.2695 151.91 52.0234 151.91 52.9141V61H148.512V52.9023C148.512 52.3398 148.434 51.9023 148.277 51.5898C148.121 51.2773 147.891 51.0586 147.586 50.9336C147.289 50.8008 146.922 50.7344 146.484 50.7344C146.031 50.7344 145.637 50.8242 145.301 51.0039C144.973 51.1836 144.699 51.4336 144.48 51.7539C144.27 52.0664 144.109 52.4336 144 52.8555C143.891 53.2773 143.836 53.7305 143.836 54.2148ZM160.688 48.3203V50.7109H153.305V48.3203H160.688ZM155.133 45.1914H158.508V57.1797C158.508 57.5469 158.555 57.8281 158.648 58.0234C158.75 58.2188 158.898 58.3555 159.094 58.4336C159.289 58.5039 159.535 58.5391 159.832 58.5391C160.043 58.5391 160.23 58.5312 160.395 58.5156C160.566 58.4922 160.711 58.4688 160.828 58.4453L160.84 60.9297C160.551 61.0234 160.238 61.0977 159.902 61.1523C159.566 61.207 159.195 61.2344 158.789 61.2344C158.047 61.2344 157.398 61.1133 156.844 60.8711C156.297 60.6211 155.875 60.2227 155.578 59.6758C155.281 59.1289 155.133 58.4102 155.133 57.5195V45.1914ZM169.453 58.1406V52.4922C169.453 52.0859 169.387 51.7383 169.254 51.4492C169.121 51.1523 168.914 50.9219 168.633 50.7578C168.359 50.5938 168.004 50.5117 167.566 50.5117C167.191 50.5117 166.867 50.5781 166.594 50.7109C166.32 50.8359 166.109 51.0195 165.961 51.2617C165.812 51.4961 165.738 51.7734 165.738 52.0938H162.363C162.363 51.5547 162.488 51.043 162.738 50.5586C162.988 50.0742 163.352 49.6484 163.828 49.2812C164.305 48.9062 164.871 48.6133 165.527 48.4023C166.191 48.1914 166.934 48.0859 167.754 48.0859C168.738 48.0859 169.613 48.25 170.379 48.5781C171.145 48.9062 171.746 49.3984 172.184 50.0547C172.629 50.7109 172.852 51.5312 172.852 52.5156V57.9414C172.852 58.6367 172.895 59.207 172.98 59.6523C173.066 60.0898 173.191 60.4727 173.355 60.8008V61H169.945C169.781 60.6562 169.656 60.2266 169.57 59.7109C169.492 59.1875 169.453 58.6641 169.453 58.1406ZM169.898 53.2773L169.922 55.1875H168.035C167.59 55.1875 167.203 55.2383 166.875 55.3398C166.547 55.4414 166.277 55.5859 166.066 55.7734C165.855 55.9531 165.699 56.1641 165.598 56.4062C165.504 56.6484 165.457 56.9141 165.457 57.2031C165.457 57.4922 165.523 57.7539 165.656 57.9883C165.789 58.2148 165.98 58.3945 166.23 58.5273C166.48 58.6523 166.773 58.7148 167.109 58.7148C167.617 58.7148 168.059 58.6133 168.434 58.4102C168.809 58.207 169.098 57.957 169.301 57.6602C169.512 57.3633 169.621 57.082 169.629 56.8164L170.52 58.2461C170.395 58.5664 170.223 58.8984 170.004 59.2422C169.793 59.5859 169.523 59.9102 169.195 60.2148C168.867 60.5117 168.473 60.7578 168.012 60.9531C167.551 61.1406 167.004 61.2344 166.371 61.2344C165.566 61.2344 164.836 61.0742 164.18 60.7539C163.531 60.4258 163.016 59.9766 162.633 59.4062C162.258 58.8281 162.07 58.1719 162.07 57.4375C162.07 56.7734 162.195 56.1836 162.445 55.668C162.695 55.1523 163.062 54.7188 163.547 54.3672C164.039 54.0078 164.652 53.7383 165.387 53.5586C166.121 53.3711 166.973 53.2773 167.941 53.2773H169.898ZM175.453 43H178.828V58.0938L178.488 61H175.453V43ZM186.855 54.5312V54.7773C186.855 55.7227 186.754 56.5898 186.551 57.3789C186.355 58.168 186.051 58.8516 185.637 59.4297C185.223 60 184.707 60.4453 184.09 60.7656C183.48 61.0781 182.762 61.2344 181.934 61.2344C181.16 61.2344 180.488 61.0781 179.918 60.7656C179.355 60.4531 178.883 60.0117 178.5 59.4414C178.117 58.8711 177.809 58.2031 177.574 57.4375C177.34 56.6719 177.164 55.8359 177.047 54.9297V54.3906C177.164 53.4844 177.34 52.6484 177.574 51.8828C177.809 51.1172 178.117 50.4492 178.5 49.8789C178.883 49.3086 179.355 48.8672 179.918 48.5547C180.48 48.2422 181.145 48.0859 181.91 48.0859C182.746 48.0859 183.473 48.2461 184.09 48.5664C184.715 48.8789 185.23 49.3242 185.637 49.9023C186.051 50.4727 186.355 51.1523 186.551 51.9414C186.754 52.7227 186.855 53.5859 186.855 54.5312ZM183.48 54.7773V54.5312C183.48 54.0156 183.441 53.5312 183.363 53.0781C183.293 52.6172 183.168 52.2148 182.988 51.8711C182.809 51.5195 182.562 51.2422 182.25 51.0391C181.945 50.8359 181.551 50.7344 181.066 50.7344C180.605 50.7344 180.215 50.8125 179.895 50.9688C179.574 51.125 179.309 51.3438 179.098 51.625C178.895 51.9062 178.742 52.2422 178.641 52.6328C178.539 53.0156 178.477 53.4375 178.453 53.8984V55.4336C178.477 56.0508 178.578 56.5977 178.758 57.0742C178.945 57.543 179.227 57.9141 179.602 58.1875C179.984 58.4531 180.48 58.5859 181.09 58.5859C181.566 58.5859 181.961 58.4922 182.273 58.3047C182.586 58.1172 182.828 57.8516 183 57.5078C183.18 57.1641 183.305 56.7617 183.375 56.3008C183.445 55.832 183.48 55.3242 183.48 54.7773ZM192.516 43V61H189.129V43H192.516ZM201.141 61.2344C200.156 61.2344 199.273 61.0781 198.492 60.7656C197.711 60.4453 197.047 60.0039 196.5 59.4414C195.961 58.8789 195.547 58.2266 195.258 57.4844C194.969 56.7344 194.824 55.9375 194.824 55.0938V54.625C194.824 53.6641 194.961 52.7852 195.234 51.9883C195.508 51.1914 195.898 50.5 196.406 49.9141C196.922 49.3281 197.547 48.8789 198.281 48.5664C199.016 48.2461 199.844 48.0859 200.766 48.0859C201.664 48.0859 202.461 48.2344 203.156 48.5312C203.852 48.8281 204.434 49.25 204.902 49.7969C205.379 50.3438 205.738 51 205.98 51.7656C206.223 52.5234 206.344 53.3672 206.344 54.2969V55.7031H196.266V53.4531H203.027V53.1953C203.027 52.7266 202.941 52.3086 202.77 51.9414C202.605 51.5664 202.355 51.2695 202.02 51.0508C201.684 50.832 201.254 50.7227 200.73 50.7227C200.285 50.7227 199.902 50.8203 199.582 51.0156C199.262 51.2109 199 51.4844 198.797 51.8359C198.602 52.1875 198.453 52.6016 198.352 53.0781C198.258 53.5469 198.211 54.0625 198.211 54.625V55.0938C198.211 55.6016 198.281 56.0703 198.422 56.5C198.57 56.9297 198.777 57.3008 199.043 57.6133C199.316 57.9258 199.645 58.168 200.027 58.3398C200.418 58.5117 200.859 58.5977 201.352 58.5977C201.961 58.5977 202.527 58.4805 203.051 58.2461C203.582 58.0039 204.039 57.6406 204.422 57.1562L206.062 58.9375C205.797 59.3203 205.434 59.6875 204.973 60.0391C204.52 60.3906 203.973 60.6797 203.332 60.9062C202.691 61.125 201.961 61.2344 201.141 61.2344Z" fill="#888888"/>
<path d="M118.594 98.4219V104.75H101.086V98.4219H118.594ZM103.828 84.875V119H95.6016V84.875H103.828ZM124.125 84.875V119H115.922V84.875H124.125ZM127.992 106.578V106.086C127.992 104.227 128.258 102.516 128.789 100.953C129.32 99.375 130.102 98.0078 131.133 96.8516C132.164 95.6953 133.438 94.7969 134.953 94.1562C136.469 93.5 138.219 93.1719 140.203 93.1719C142.203 93.1719 143.961 93.5 145.477 94.1562C147.008 94.7969 148.289 95.6953 149.32 96.8516C150.352 98.0078 151.133 99.375 151.664 100.953C152.195 102.516 152.461 104.227 152.461 106.086V106.578C152.461 108.422 152.195 110.133 151.664 111.711C151.133 113.273 150.352 114.641 149.32 115.812C148.289 116.969 147.016 117.867 145.5 118.508C143.984 119.148 142.234 119.469 140.25 119.469C138.266 119.469 136.508 119.148 134.977 118.508C133.445 117.867 132.164 116.969 131.133 115.812C130.102 114.641 129.32 113.273 128.789 111.711C128.258 110.133 127.992 108.422 127.992 106.578ZM135.891 106.086V106.578C135.891 107.531 135.961 108.422 136.102 109.25C136.242 110.078 136.477 110.805 136.805 111.43C137.133 112.039 137.578 112.516 138.141 112.859C138.703 113.203 139.406 113.375 140.25 113.375C141.078 113.375 141.766 113.203 142.312 112.859C142.875 112.516 143.32 112.039 143.648 111.43C143.977 110.805 144.211 110.078 144.352 109.25C144.492 108.422 144.562 107.531 144.562 106.578V106.086C144.562 105.164 144.492 104.297 144.352 103.484C144.211 102.656 143.977 101.93 143.648 101.305C143.32 100.664 142.875 100.164 142.312 99.8047C141.75 99.4453 141.047 99.2656 140.203 99.2656C139.375 99.2656 138.68 99.4453 138.117 99.8047C137.57 100.164 137.133 100.664 136.805 101.305C136.477 101.93 136.242 102.656 136.102 103.484C135.961 104.297 135.891 105.164 135.891 106.086ZM163.688 111.453L168.375 93.6406H173.32L171.562 102.57L166.922 119H162.961L163.688 111.453ZM161.836 93.6406L164.742 111.312L165.07 119H160.266L154.266 93.6406H161.836ZM177.492 110.938L180.422 93.6406H187.992L182.039 119H177.234L177.492 110.938ZM173.883 93.6406L178.617 111.406L179.344 119H175.336L170.789 102.617L169.102 93.6406H173.883ZM218.297 84.875V119H210.07V84.875H218.297ZM228.562 84.875V91.2266H200.039V84.875H228.562ZM225.773 106.578V106.086C225.773 104.227 226.039 102.516 226.57 100.953C227.102 99.375 227.883 98.0078 228.914 96.8516C229.945 95.6953 231.219 94.7969 232.734 94.1562C234.25 93.5 236 93.1719 237.984 93.1719C239.984 93.1719 241.742 93.5 243.258 94.1562C244.789 94.7969 246.07 95.6953 247.102 96.8516C248.133 98.0078 248.914 99.375 249.445 100.953C249.977 102.516 250.242 104.227 250.242 106.086V106.578C250.242 108.422 249.977 110.133 249.445 111.711C248.914 113.273 248.133 114.641 247.102 115.812C246.07 116.969 244.797 117.867 243.281 118.508C241.766 119.148 240.016 119.469 238.031 119.469C236.047 119.469 234.289 119.148 232.758 118.508C231.227 117.867 229.945 116.969 228.914 115.812C227.883 114.641 227.102 113.273 226.57 111.711C226.039 110.133 225.773 108.422 225.773 106.578ZM233.672 106.086V106.578C233.672 107.531 233.742 108.422 233.883 109.25C234.023 110.078 234.258 110.805 234.586 111.43C234.914 112.039 235.359 112.516 235.922 112.859C236.484 113.203 237.188 113.375 238.031 113.375C238.859 113.375 239.547 113.203 240.094 112.859C240.656 112.516 241.102 112.039 241.43 111.43C241.758 110.805 241.992 110.078 242.133 109.25C242.273 108.422 242.344 107.531 242.344 106.578V106.086C242.344 105.164 242.273 104.297 242.133 103.484C241.992 102.656 241.758 101.93 241.43 101.305C241.102 100.664 240.656 100.164 240.094 99.8047C239.531 99.4453 238.828 99.2656 237.984 99.2656C237.156 99.2656 236.461 99.4453 235.898 99.8047C235.352 100.164 234.914 100.664 234.586 101.305C234.258 101.93 234.023 102.656 233.883 103.484C233.742 104.297 233.672 105.164 233.672 106.086ZM266.086 84.875H279.516C282.141 84.875 284.422 85.2656 286.359 86.0469C288.297 86.8281 289.789 87.9844 290.836 89.5156C291.898 91.0469 292.43 92.9375 292.43 95.1875C292.43 97.1406 292.125 98.7734 291.516 100.086C290.906 101.398 290.055 102.484 288.961 103.344C287.883 104.188 286.625 104.883 285.188 105.43L282.492 106.953H271.219L271.172 100.602H279.516C280.562 100.602 281.43 100.414 282.117 100.039C282.805 99.6641 283.32 99.1328 283.664 98.4453C284.023 97.7422 284.203 96.9062 284.203 95.9375C284.203 94.9531 284.023 94.1094 283.664 93.4062C283.305 92.7031 282.773 92.1641 282.07 91.7891C281.383 91.4141 280.531 91.2266 279.516 91.2266H274.312V119H266.086V84.875ZM284.766 119L277.219 103.906L285.938 103.859L293.578 118.648V119H284.766ZM311.836 112.836V93.6406H319.758V119H312.352L311.836 112.836ZM312.586 107.68L314.648 107.633C314.648 109.336 314.445 110.914 314.039 112.367C313.633 113.805 313.031 115.055 312.234 116.117C311.453 117.18 310.484 118.008 309.328 118.602C308.188 119.18 306.867 119.469 305.367 119.469C304.117 119.469 302.969 119.297 301.922 118.953C300.891 118.594 300 118.039 299.25 117.289C298.5 116.523 297.914 115.547 297.492 114.359C297.086 113.156 296.883 111.719 296.883 110.047V93.6406H304.781V110.094C304.781 110.656 304.852 111.141 304.992 111.547C305.133 111.953 305.336 112.297 305.602 112.578C305.867 112.844 306.195 113.047 306.586 113.188C306.992 113.312 307.453 113.375 307.969 113.375C309.156 113.375 310.086 113.125 310.758 112.625C311.43 112.125 311.898 111.445 312.164 110.586C312.445 109.727 312.586 108.758 312.586 107.68ZM331.875 99.0547V119H323.977V93.6406H331.383L331.875 99.0547ZM330.938 105.453L329.086 105.5C329.086 103.562 329.32 101.836 329.789 100.32C330.258 98.7891 330.922 97.4922 331.781 96.4297C332.641 95.3672 333.664 94.5625 334.852 94.0156C336.055 93.4531 337.391 93.1719 338.859 93.1719C340.031 93.1719 341.102 93.3438 342.07 93.6875C343.055 94.0312 343.898 94.5859 344.602 95.3516C345.32 96.1172 345.867 97.1328 346.242 98.3984C346.633 99.6484 346.828 101.195 346.828 103.039V119H338.883V103.016C338.883 102 338.742 101.227 338.461 100.695C338.18 100.148 337.773 99.7734 337.242 99.5703C336.711 99.3672 336.062 99.2656 335.297 99.2656C334.484 99.2656 333.797 99.4219 333.234 99.7344C332.672 100.047 332.219 100.484 331.875 101.047C331.547 101.594 331.305 102.242 331.148 102.992C331.008 103.742 330.938 104.562 330.938 105.453ZM363.773 108.195H357.047C357.047 106.82 357.141 105.609 357.328 104.562C357.531 103.5 357.875 102.547 358.359 101.703C358.844 100.859 359.5 100.078 360.328 99.3594C361.062 98.75 361.695 98.1641 362.227 97.6016C362.758 97.0391 363.164 96.4688 363.445 95.8906C363.727 95.3125 363.867 94.6953 363.867 94.0391C363.867 93.2266 363.75 92.5625 363.516 92.0469C363.297 91.5312 362.961 91.1484 362.508 90.8984C362.07 90.6328 361.516 90.5 360.844 90.5C360.297 90.5 359.781 90.6328 359.297 90.8984C358.828 91.1641 358.445 91.5781 358.148 92.1406C357.852 92.6875 357.688 93.4141 357.656 94.3203H349.711C349.758 91.9922 350.273 90.1016 351.258 88.6484C352.258 87.1797 353.586 86.1094 355.242 85.4375C356.914 84.75 358.781 84.4062 360.844 84.4062C363.125 84.4062 365.086 84.7578 366.727 85.4609C368.367 86.1641 369.625 87.2109 370.5 88.6016C371.375 89.9766 371.812 91.6719 371.812 93.6875C371.812 95.0312 371.555 96.2031 371.039 97.2031C370.539 98.1875 369.859 99.1094 369 99.9688C368.156 100.812 367.211 101.719 366.164 102.688C365.258 103.484 364.641 104.297 364.312 105.125C363.984 105.938 363.805 106.961 363.773 108.195ZM356.086 115.32C356.086 114.195 356.492 113.258 357.305 112.508C358.117 111.742 359.172 111.359 360.469 111.359C361.766 111.359 362.82 111.742 363.633 112.508C364.445 113.258 364.852 114.195 364.852 115.32C364.852 116.445 364.445 117.391 363.633 118.156C362.82 118.906 361.766 119.281 360.469 119.281C359.172 119.281 358.117 118.906 357.305 118.156C356.492 117.391 356.086 116.445 356.086 115.32Z" fill="black"/>
<path d="M1134 0H1348C1356.28 0 1363 6.71573 1363 15V148C1363 156.284 1356.28 163 1348 163H1134V0Z" fill="#1EDC98"/>
<path d="M1260.62 78.8078C1263.81 78.8078 1266.93 79.7552 1269.59 81.5302C1272.25 83.3052 1274.32 85.8281 1275.54 88.7798C1276.76 91.7315 1277.08 94.9795 1276.46 98.1131C1275.84 101.247 1274.3 104.125 1272.04 106.384C1269.78 108.643 1266.9 110.182 1263.77 110.805C1260.63 111.428 1257.39 111.108 1254.43 109.886C1251.48 108.663 1248.96 106.593 1247.18 103.936C1245.41 101.28 1244.46 98.1565 1244.46 94.9616C1244.46 90.6774 1246.16 86.5686 1249.19 83.5392C1252.22 80.5097 1256.33 78.8078 1260.62 78.8078ZM1260.62 73.4232C1256.36 73.4232 1252.19 74.6864 1248.65 77.0531C1245.11 79.4198 1242.35 82.7836 1240.72 86.7192C1239.09 90.6549 1238.66 94.9855 1239.49 99.1636C1240.32 103.342 1242.37 107.179 1245.39 110.192C1248.4 113.204 1252.24 115.255 1256.41 116.086C1260.59 116.917 1264.92 116.491 1268.86 114.861C1272.79 113.23 1276.16 110.47 1278.52 106.928C1280.89 103.386 1282.15 99.2215 1282.15 94.9616C1282.15 89.2493 1279.88 83.7709 1275.85 79.7317C1271.81 75.6924 1266.33 73.4232 1260.62 73.4232Z" fill="white"/>
<path d="M1274.08 46.4999H1220.23C1218.8 46.4999 1217.43 47.0672 1216.42 48.0771C1215.41 49.0869 1214.85 50.4565 1214.85 51.8845V105.731C1214.85 107.159 1215.41 108.528 1216.42 109.538C1217.43 110.548 1218.8 111.115 1220.23 111.115H1231V105.731H1220.23V68.0383H1279.46V51.8845C1279.46 50.4565 1278.89 49.0869 1277.88 48.0771C1276.87 47.0672 1275.5 46.4999 1274.08 46.4999ZM1220.23 62.6537V51.8845H1274.08V62.6537H1220.23Z" fill="white"/>
<path d="M1255.23 86.8848V103.039L1268.69 94.9617L1255.23 86.8848Z" fill="white"/>
</svg>
