<svg width="170" height="31" viewBox="0 0 170 31" fill="none" xmlns="http://www.w3.org/2000/svg">
<path d="M22.0536 31H13.0584L8.94977 20.0303C8.90988 19.8441 8.83675 19.5981 8.73037 19.2923C8.6373 18.9865 8.51763 18.6208 8.37137 18.1954L8.4312 20.2297V31H0.154053V0.205022H8.67054C12.4202 0.205022 15.2258 0.942984 17.0873 2.41891C19.4541 4.30703 20.6375 6.99295 20.6375 10.4767C20.6375 14.1997 19.0486 16.7726 15.8707 18.1954L22.0536 31ZM8.47109 14.4656H9.02955C9.98691 14.4656 10.7847 14.1 11.4229 13.3687C12.0612 12.6374 12.3803 11.7066 12.3803 10.5764C12.3803 8.27607 11.177 7.12591 8.77026 7.12591H8.47109V14.4656ZM24.806 31V0.205022H40.2633V7.44503H33.123V11.9326H39.5254V18.8934H33.123V23.6004H40.2633V31H24.806ZM43.8335 31V0.205022H51.7715L55.94 11.0152C56.1661 11.6534 56.4187 12.3847 56.6979 13.2091C56.9905 14.0335 57.3096 14.9842 57.6553 16.0612L58.5129 18.7738C58.2071 16.1011 57.9744 13.8141 57.8149 11.9127C57.6553 10.0113 57.5755 8.41569 57.5755 7.12591V0.205022H65.5136V31H57.5755L53.3871 19.6713C52.9483 18.4613 52.5494 17.3311 52.1904 16.2806C51.8447 15.2169 51.5389 14.2064 51.2729 13.249C51.4458 15.4164 51.5721 17.3045 51.6519 18.9134C51.7317 20.5223 51.7715 21.9317 51.7715 23.1417V31H43.8335ZM80.592 31H72.2749V7.58465H67.6876V0.205022H85.3588V7.58465H80.592V31Z" fill="#363738"/>
<path d="M109.692 31H101.095L100.477 27.0908H94.8725L94.1944 31H85.5981L92.9977 0.205022H103.17L109.692 31ZM99.4998 20.489L98.9613 16.8989C98.948 16.8856 98.9214 16.7061 98.8815 16.3604C98.8549 16.0679 98.7153 14.9111 98.4626 12.89C98.436 12.664 98.4028 12.3581 98.3629 11.9725C98.323 11.5736 98.2698 11.075 98.2033 10.4767L97.9441 7.5647C97.9175 7.84393 97.8776 8.1564 97.8244 8.50211C97.7845 8.84783 97.738 9.22678 97.6848 9.63898C97.5917 10.4634 97.5252 11.0351 97.4853 11.3542C97.4454 11.6734 97.4188 11.8662 97.4056 11.9326L96.8271 15.6623L95.9895 20.489H99.4998ZM112.125 31V0.205022H121.798C125.415 0.205022 128.094 1.00282 129.836 2.59841C131.604 4.2339 132.489 6.34806 132.489 8.9409C132.489 12.7969 130.574 14.8845 126.745 15.2036C128.925 15.5227 130.521 16.2407 131.531 17.3577C132.555 18.4746 133.067 20.0835 133.067 22.1843C133.067 24.8304 132.209 26.9578 130.494 28.5667C128.792 30.1889 126.552 31 123.773 31H112.125ZM120.442 24.3184C120.602 24.3317 120.741 24.345 120.861 24.3583C120.98 24.3583 121.08 24.3583 121.16 24.3583C122.197 24.3583 123.021 24.0858 123.633 23.5406C124.258 22.9954 124.571 22.2641 124.571 21.3467C124.571 20.4292 124.258 19.7112 123.633 19.1926C123.021 18.674 122.177 18.4147 121.1 18.4147H120.442V24.3184ZM120.442 12.172H121C121.998 12.172 122.782 11.9393 123.354 11.4739C123.939 11.0085 124.231 10.357 124.231 9.51931C124.231 7.73756 123.254 6.84668 121.3 6.84668C121.207 6.84668 121.087 6.85333 120.941 6.86663C120.808 6.86663 120.641 6.87328 120.442 6.88657V12.172ZM151.177 31H136.617V0.205022H144.934V23.6004H151.177V31ZM153.65 31V0.205022H169.108V7.44503H161.967V11.9326H168.37V18.8934H161.967V23.6004H169.108V31H153.65Z" fill="#1EDC98"/>
<path d="M22.0536 31V31.6007H23.0107L22.5945 30.7388L22.0536 31ZM13.0584 31L12.4959 31.2107L12.642 31.6007H13.0584V31ZM8.94977 20.0303L8.36241 20.1561L8.37169 20.1995L8.38724 20.241L8.94977 20.0303ZM8.73037 19.2923L8.15571 19.4672L8.15914 19.4785L8.16302 19.4897L8.73037 19.2923ZM8.37137 18.1954L8.93943 18.0001L7.77093 18.213L8.37137 18.1954ZM8.4312 20.2297H9.03189V20.2209L9.03164 20.2121L8.4312 20.2297ZM8.4312 31V31.6007H9.03189V31H8.4312ZM0.154053 31H-0.446642V31.6007H0.154053V31ZM0.154053 0.205022V-0.395673H-0.446642V0.205022H0.154053ZM17.0873 2.41891L17.4619 1.94933L17.4605 1.94821L17.0873 2.41891ZM15.8707 18.1954L15.6252 17.6471L15.0609 17.8997L15.3297 18.4566L15.8707 18.1954ZM8.47109 14.4656H7.8704V15.0663H8.47109V14.4656ZM8.47109 7.12591V6.52522H7.8704V7.12591H8.47109ZM22.0536 30.3993H13.0584V31.6007H22.0536V30.3993ZM13.621 30.7893L9.5123 19.8196L8.38724 20.241L12.4959 31.2107L13.621 30.7893ZM9.53713 19.9044C9.4897 19.6831 9.40745 19.4104 9.29773 19.095L8.16302 19.4897C8.26604 19.7858 8.33006 20.0052 8.36241 20.1561L9.53713 19.9044ZM9.30504 19.1174C9.20924 18.8027 9.08717 18.4298 8.93943 18.0001L7.8033 18.3906C7.94809 18.8118 8.06535 19.1703 8.15571 19.4672L9.30504 19.1174ZM7.77093 18.213L7.83077 20.2474L9.03164 20.2121L8.9718 18.1777L7.77093 18.213ZM7.83051 20.2297V31H9.03189V20.2297H7.83051ZM8.4312 30.3993H0.154053V31.6007H8.4312V30.3993ZM0.754747 31V0.205022H-0.446642V31H0.754747ZM0.154053 0.805716H8.67054V-0.395673H0.154053V0.805716ZM8.67054 0.805716C12.3582 0.805716 15.0047 1.53432 16.7141 2.88961L17.4605 1.94821C15.4468 0.351652 12.4822 -0.395673 8.67054 -0.395673V0.805716ZM16.7127 2.88849C18.914 4.6446 20.0368 7.14471 20.0368 10.4767H21.2382C21.2382 6.84119 19.9942 3.96946 17.4619 1.94933L16.7127 2.88849ZM20.0368 10.4767C20.0368 12.2524 19.6584 13.7112 18.9347 14.883C18.2127 16.0522 17.1214 16.9772 15.6252 17.6471L16.1161 18.7436C17.7978 17.9907 19.09 16.918 19.9569 15.5143C20.8221 14.1132 21.2382 12.4239 21.2382 10.4767H20.0368ZM15.3297 18.4566L21.5127 31.2612L22.5945 30.7388L16.4116 17.9342L15.3297 18.4566ZM8.47109 15.0663H9.02955V13.865H8.47109V15.0663ZM9.02955 15.0663C10.1631 15.0663 11.125 14.6236 11.8755 13.7637L10.9704 12.9737C10.4444 13.5764 9.81067 13.865 9.02955 13.865V15.0663ZM11.8755 13.7637C12.6247 12.9053 12.981 11.8266 12.981 10.5764H11.7796C11.7796 11.5866 11.4977 12.3695 10.9704 12.9737L11.8755 13.7637ZM12.981 10.5764C12.981 9.32654 12.6527 8.28056 11.8928 7.55429C11.1381 6.83287 10.0596 6.52522 8.77026 6.52522V7.72661C9.88763 7.72661 10.6142 7.99404 11.0627 8.42278C11.5062 8.84666 11.7796 9.52592 11.7796 10.5764H12.981ZM8.77026 6.52522H8.47109V7.72661H8.77026V6.52522ZM7.8704 7.12591V14.4656H9.07178V7.12591H7.8704ZM24.806 31H24.2053V31.6007H24.806V31ZM24.806 0.205022V-0.395673H24.2053V0.205022H24.806ZM40.2633 0.205022H40.864V-0.395673H40.2633V0.205022ZM40.2633 7.44503V8.04573H40.864V7.44503H40.2633ZM33.123 7.44503V6.84434H32.5223V7.44503H33.123ZM33.123 11.9326H32.5223V12.5333H33.123V11.9326ZM39.5254 11.9326H40.126V11.3319H39.5254V11.9326ZM39.5254 18.8934V19.4941H40.126V18.8934H39.5254ZM33.123 18.8934V18.2927H32.5223V18.8934H33.123ZM33.123 23.6004H32.5223V24.2011H33.123V23.6004ZM40.2633 23.6004H40.864V22.9997H40.2633V23.6004ZM40.2633 31V31.6007H40.864V31H40.2633ZM25.4067 31V0.205022H24.2053V31H25.4067ZM24.806 0.805716H40.2633V-0.395673H24.806V0.805716ZM39.6626 0.205022V7.44503H40.864V0.205022H39.6626ZM40.2633 6.84434H33.123V8.04573H40.2633V6.84434ZM32.5223 7.44503V11.9326H33.7237V7.44503H32.5223ZM33.123 12.5333H39.5254V11.3319H33.123V12.5333ZM38.9247 11.9326V18.8934H40.126V11.9326H38.9247ZM39.5254 18.2927H33.123V19.4941H39.5254V18.2927ZM32.5223 18.8934V23.6004H33.7237V18.8934H32.5223ZM33.123 24.2011H40.2633V22.9997H33.123V24.2011ZM39.6626 23.6004V31H40.864V23.6004H39.6626ZM40.2633 30.3993H24.806V31.6007H40.2633V30.3993ZM43.8335 31H43.2328V31.6007H43.8335V31ZM43.8335 0.205022V-0.395673H43.2328V0.205022H43.8335ZM51.7715 0.205022L52.332 -0.0111001L52.1837 -0.395673H51.7715V0.205022ZM55.94 11.0152L56.5063 10.8146L56.5035 10.8068L56.5005 10.7991L55.94 11.0152ZM56.6979 13.2091L56.1289 13.4018L56.1318 13.41L56.6979 13.2091ZM57.6553 16.0612L58.2281 15.8802L58.2272 15.8777L57.6553 16.0612ZM58.5129 18.7738L57.9402 18.9548L59.1097 18.7055L58.5129 18.7738ZM57.5755 0.205022V-0.395673H56.9748V0.205022H57.5755ZM65.5136 0.205022H66.1143V-0.395673H65.5136V0.205022ZM65.5136 31V31.6007H66.1143V31H65.5136ZM57.5755 31L57.0121 31.2083L57.1572 31.6007H57.5755V31ZM53.3871 19.6713L52.8224 19.8761L52.8237 19.8796L53.3871 19.6713ZM52.1904 16.2806L51.619 16.4663L51.622 16.4749L52.1904 16.2806ZM51.2729 13.249L51.8517 13.0882L50.6741 13.2968L51.2729 13.249ZM51.7715 31V31.6007H52.3722V31H51.7715ZM44.4342 31V0.205022H43.2328V31H44.4342ZM43.8335 0.805716H51.7715V-0.395673H43.8335V0.805716ZM51.2111 0.421143L55.3796 11.2313L56.5005 10.7991L52.332 -0.0111001L51.2111 0.421143ZM55.3738 11.2157C55.5987 11.8507 55.8504 12.5794 56.129 13.4018L57.2669 13.0164C56.987 12.1901 56.7334 11.4561 56.5063 10.8146L55.3738 11.2157ZM56.1318 13.41C56.4218 14.2273 56.739 15.172 57.0833 16.2448L58.2272 15.8777C57.8802 14.7964 57.5591 13.8397 57.2641 13.0082L56.1318 13.41ZM57.0826 16.2423L57.9402 18.9548L59.0857 18.5927L58.228 15.8802L57.0826 16.2423ZM59.1097 18.7055C58.8043 16.0366 58.5723 13.756 58.4134 11.8625L57.2163 11.9629C57.3765 13.8723 57.6099 16.1656 57.9161 18.842L59.1097 18.7055ZM58.4134 11.8625C58.2547 9.97066 58.1762 8.39306 58.1762 7.12591H56.9748C56.9748 8.43832 57.0559 10.0519 57.2163 11.9629L58.4134 11.8625ZM58.1762 7.12591V0.205022H56.9748V7.12591H58.1762ZM57.5755 0.805716H65.5136V-0.395673H57.5755V0.805716ZM64.9129 0.205022V31H66.1143V0.205022H64.9129ZM65.5136 30.3993H57.5755V31.6007H65.5136V30.3993ZM58.1389 30.7917L53.9505 19.463L52.8237 19.8796L57.0121 31.2083L58.1389 30.7917ZM53.9518 19.4665C53.5141 18.2595 53.1164 17.1328 52.7588 16.0864L51.622 16.4749C51.9824 17.5294 52.3825 18.6631 52.8224 19.8761L53.9518 19.4665ZM52.7617 16.095C52.4183 15.0385 52.115 14.0363 51.8517 13.0882L50.6941 13.4098C50.9627 14.3764 51.271 15.3953 51.6191 16.4663L52.7617 16.095ZM50.6741 13.2968C50.8467 15.46 50.9725 17.3419 51.0519 18.9431L52.2518 18.8836C52.1717 17.2671 52.0449 15.3727 51.8717 13.2013L50.6741 13.2968ZM51.0519 18.9431C51.1314 20.5451 51.1708 21.9442 51.1708 23.1417H52.3722C52.3722 21.9192 52.332 20.4994 52.2518 18.8836L51.0519 18.9431ZM51.1708 23.1417V31H52.3722V23.1417H51.1708ZM51.7715 30.3993H43.8335V31.6007H51.7715V30.3993ZM80.592 31V31.6007H81.1927V31H80.592ZM72.2749 31H71.6742V31.6007H72.2749V31ZM72.2749 7.58465H72.8756V6.98395H72.2749V7.58465ZM67.6876 7.58465H67.0869V8.18534H67.6876V7.58465ZM67.6876 0.205022V-0.395673H67.0869V0.205022H67.6876ZM85.3588 0.205022H85.9595V-0.395673H85.3588V0.205022ZM85.3588 7.58465V8.18534H85.9595V7.58465H85.3588ZM80.592 7.58465V6.98395H79.9913V7.58465H80.592ZM80.592 30.3993H72.2749V31.6007H80.592V30.3993ZM72.8756 31V7.58465H71.6742V31H72.8756ZM72.2749 6.98395H67.6876V8.18534H72.2749V6.98395ZM68.2883 7.58465V0.205022H67.0869V7.58465H68.2883ZM67.6876 0.805716H85.3588V-0.395673H67.6876V0.805716ZM84.7581 0.205022V7.58465H85.9595V0.205022H84.7581ZM85.3588 6.98395H80.592V8.18534H85.3588V6.98395ZM79.9913 7.58465V31H81.1927V7.58465H79.9913ZM109.692 31V31.6007H110.433L110.279 30.8755L109.692 31ZM101.095 31L100.502 31.0938L100.582 31.6007H101.095V31ZM100.477 27.0908L101.07 26.997L100.99 26.4901H100.477V27.0908ZM94.8725 27.0908V26.4901H94.3671L94.2807 26.9881L94.8725 27.0908ZM94.1944 31V31.6007H94.6999L94.7863 31.1027L94.1944 31ZM85.5982 31L85.0141 30.8597L84.836 31.6007H85.5982V31ZM92.9977 0.205022V-0.395673H92.5243L92.4137 0.0646784L92.9977 0.205022ZM103.17 0.205022L103.757 0.0805626L103.656 -0.395673H103.17V0.205022ZM99.4998 20.489V21.0897H100.197L100.094 20.3999L99.4998 20.489ZM98.9613 16.8989L99.5553 16.8098L99.5259 16.6141L99.386 16.4742L98.9613 16.8989ZM98.8815 16.3604L98.2832 16.4148L98.2839 16.422L98.2847 16.4293L98.8815 16.3604ZM98.4626 12.89L97.866 12.9602L97.8666 12.9645L98.4626 12.89ZM98.3629 11.9725L97.7652 12.0323L97.7654 12.0343L98.3629 11.9725ZM98.2033 10.4767L97.6049 10.53L97.6063 10.543L98.2033 10.4767ZM97.9441 7.5647L98.5424 7.51143L97.3461 7.50775L97.9441 7.5647ZM97.8244 8.50211L97.2307 8.41077L97.229 8.42199L97.2277 8.43326L97.8244 8.50211ZM97.6848 9.63898L97.089 9.56209L97.0879 9.57158L97.6848 9.63898ZM97.4055 11.9326L96.8165 11.8148L96.814 11.8277L96.812 11.8406L97.4055 11.9326ZM96.8271 15.6623L97.4191 15.7651L97.4207 15.7544L96.8271 15.6623ZM95.9895 20.489L95.3976 20.3863L95.2755 21.0897H95.9895V20.489ZM109.692 30.3993H101.095V31.6007H109.692V30.3993ZM101.689 30.9062L101.07 26.997L99.8838 27.1846L100.502 31.0938L101.689 30.9062ZM100.477 26.4901H94.8725V27.6915H100.477V26.4901ZM94.2807 26.9881L93.6026 30.8973L94.7863 31.1027L95.4644 27.1935L94.2807 26.9881ZM94.1944 30.3993H85.5982V31.6007H94.1944V30.3993ZM86.1822 31.1403L93.5818 0.345365L92.4137 0.0646784L85.0141 30.8597L86.1822 31.1403ZM92.9977 0.805716H103.17V-0.395673H92.9977V0.805716ZM102.582 0.329481L109.104 31.1245L110.279 30.8755L103.757 0.0805626L102.582 0.329481ZM100.094 20.3999L99.5553 16.8098L98.3672 16.988L98.9057 20.5781L100.094 20.3999ZM99.386 16.4742C99.4328 16.521 99.4615 16.5654 99.4759 16.5895C99.4917 16.616 99.5023 16.6386 99.5086 16.653C99.521 16.6811 99.5279 16.7033 99.5305 16.7119C99.5361 16.7303 99.538 16.741 99.537 16.7361C99.5355 16.7288 99.5317 16.7076 99.5256 16.6663C99.5137 16.5863 99.498 16.4627 99.4782 16.2916L98.2847 16.4293C98.3049 16.6039 98.3224 16.7428 98.3371 16.8424C98.3443 16.8908 98.3521 16.9386 98.3605 16.9795C98.3645 16.9986 98.371 17.0283 98.3808 17.0604C98.3855 17.0759 98.3944 17.1036 98.4086 17.136C98.416 17.1529 98.4532 17.2404 98.5365 17.3237L99.386 16.4742ZM99.4797 16.306C99.4519 16.0005 99.3104 14.8295 99.0587 12.8155L97.8666 12.9645C98.1201 14.9927 98.2578 16.1353 98.2832 16.4148L99.4797 16.306ZM99.0592 12.8198C99.0331 12.5978 99.0002 12.2952 98.9604 11.9107L97.7654 12.0343C97.8054 12.4211 97.839 12.7301 97.8661 12.9602L99.0592 12.8198ZM98.9606 11.9128C98.9204 11.5109 98.867 11.0099 98.8004 10.4103L97.6063 10.543C97.6727 11.1401 97.7256 11.6364 97.7652 12.0323L98.9606 11.9128ZM98.8017 10.4234L98.5424 7.51143L97.3457 7.61798L97.605 10.5299L98.8017 10.4234ZM97.3461 7.50775C97.3208 7.77309 97.2825 8.07383 97.2307 8.41077L98.4181 8.59345C98.4726 8.23897 98.5141 7.91478 98.5421 7.62165L97.3461 7.50775ZM97.2277 8.43326C97.1881 8.77584 97.1419 9.15209 97.089 9.5621L98.2805 9.71585C98.334 9.30148 98.3809 8.91981 98.4211 8.57097L97.2277 8.43326ZM97.0879 9.57158C96.9948 10.3962 96.9287 10.9646 96.8893 11.2797L98.0814 11.4287C98.1218 11.1056 98.1886 10.5306 98.2817 9.70637L97.0879 9.57158ZM96.8893 11.2797C96.8695 11.4382 96.8532 11.5633 96.8404 11.6561C96.834 11.7025 96.8287 11.7395 96.8243 11.7678C96.8221 11.7818 96.8204 11.7929 96.8189 11.8014C96.8182 11.8056 96.8176 11.8088 96.8172 11.8112C96.817 11.8124 96.8168 11.8133 96.8167 11.8139C96.8166 11.8146 96.8165 11.8149 96.8165 11.8148L97.9946 12.0504C98.0133 11.957 98.0428 11.7373 98.0814 11.4287L96.8893 11.2797ZM96.812 11.8406L96.2336 15.5703L97.4207 15.7544L97.9992 12.0247L96.812 11.8406ZM96.2353 15.5596L95.3976 20.3863L96.5813 20.5917L97.419 15.7651L96.2353 15.5596ZM95.9895 21.0897H99.4998V19.8883H95.9895V21.0897ZM112.125 31H111.524V31.6007H112.125V31ZM112.125 0.205022V-0.395673H111.524V0.205022H112.125ZM129.836 2.59841L130.244 2.1574L130.242 2.15547L129.836 2.59841ZM126.745 15.2036L126.695 14.605L126.658 15.798L126.745 15.2036ZM131.531 17.3577L131.086 17.7607L131.089 17.7636L131.531 17.3577ZM130.494 28.5667L130.083 28.1286L130.08 28.1319L130.494 28.5667ZM120.442 24.3184H119.841V24.8712L120.392 24.9171L120.442 24.3184ZM120.861 24.3583L120.794 24.9554L120.828 24.959H120.861V24.3583ZM123.633 23.5406L123.238 23.0879L123.233 23.0922L123.633 23.5406ZM123.633 19.1926L123.245 19.6508L123.25 19.6549L123.633 19.1926ZM120.442 18.4147V17.8141H119.841V18.4147H120.442ZM120.442 12.172H119.841V12.7727H120.442V12.172ZM123.354 11.4739L122.98 11.0038L122.975 11.008L123.354 11.4739ZM120.941 6.86663V7.46732H120.968L120.995 7.46486L120.941 6.86663ZM120.442 6.88657L120.402 6.28721L119.841 6.32459V6.88657H120.442ZM112.726 31V0.205022H111.524V31H112.726ZM112.125 0.805716H121.798V-0.395673H112.125V0.805716ZM121.798 0.805716C125.342 0.805716 127.845 1.58948 129.43 3.04136L130.242 2.15547C128.343 0.416157 125.488 -0.395673 121.798 -0.395673V0.805716ZM129.428 3.03942C131.064 4.55184 131.888 6.50119 131.888 8.9409H133.089C133.089 6.19493 132.145 3.91596 130.244 2.1574L129.428 3.03942ZM131.888 8.9409C131.888 10.7735 131.434 12.0943 130.61 12.9926C129.786 13.8905 128.513 14.4534 126.695 14.605L126.794 15.8022C128.805 15.6347 130.404 14.9943 131.495 13.8046C132.586 12.6153 133.089 10.9643 133.089 8.9409H131.888ZM126.658 15.798C128.762 16.106 130.204 16.7858 131.086 17.7607L131.977 16.9547C130.838 15.6957 129.088 14.9395 126.832 14.6092L126.658 15.798ZM131.089 17.7636C131.977 18.7331 132.466 20.1754 132.466 22.1843H133.668C133.668 19.9916 133.133 18.2161 131.974 16.9518L131.089 17.7636ZM132.466 22.1843C132.466 24.6873 131.662 26.648 130.083 28.1286L130.905 29.0048C132.757 27.2676 133.668 24.9734 133.668 22.1843H132.466ZM130.08 28.1319C128.509 29.6286 126.427 30.3993 123.773 30.3993V31.6007C126.676 31.6007 129.075 30.7492 130.909 29.0015L130.08 28.1319ZM123.773 30.3993H112.125V31.6007H123.773V30.3993ZM120.392 24.9171C120.548 24.93 120.682 24.9428 120.794 24.9554L120.927 23.7613C120.801 23.7473 120.655 23.7334 120.492 23.7198L120.392 24.9171ZM120.861 24.959C120.861 24.959 120.861 24.959 120.861 24.959C120.862 24.959 120.862 24.959 120.862 24.959C120.862 24.959 120.863 24.959 120.863 24.959C120.863 24.959 120.863 24.959 120.864 24.959C120.864 24.959 120.864 24.959 120.864 24.959C120.865 24.959 120.865 24.959 120.865 24.959C120.865 24.959 120.865 24.959 120.866 24.959C120.866 24.959 120.866 24.959 120.866 24.959C120.867 24.959 120.867 24.959 120.867 24.959C120.867 24.959 120.868 24.959 120.868 24.959C120.868 24.959 120.868 24.959 120.868 24.959C120.869 24.959 120.869 24.959 120.869 24.959C120.869 24.959 120.87 24.959 120.87 24.959C120.87 24.959 120.87 24.959 120.871 24.959C120.871 24.959 120.871 24.959 120.871 24.959C120.871 24.959 120.872 24.959 120.872 24.959C120.872 24.959 120.872 24.959 120.873 24.959C120.873 24.959 120.873 24.959 120.873 24.959C120.874 24.959 120.874 24.959 120.874 24.959C120.874 24.959 120.874 24.959 120.875 24.959C120.875 24.959 120.875 24.959 120.875 24.959C120.876 24.959 120.876 24.959 120.876 24.959C120.876 24.959 120.877 24.959 120.877 24.959C120.877 24.959 120.877 24.959 120.877 24.959C120.878 24.959 120.878 24.959 120.878 24.959C120.878 24.959 120.879 24.959 120.879 24.959C120.879 24.959 120.879 24.959 120.88 24.959C120.88 24.959 120.88 24.959 120.88 24.959C120.88 24.959 120.881 24.959 120.881 24.959C120.881 24.959 120.881 24.959 120.882 24.959C120.882 24.959 120.882 24.959 120.882 24.959C120.883 24.959 120.883 24.959 120.883 24.959C120.883 24.959 120.883 24.959 120.884 24.959C120.884 24.959 120.884 24.959 120.884 24.959C120.885 24.959 120.885 24.959 120.885 24.959C120.885 24.959 120.886 24.959 120.886 24.959C120.886 24.959 120.886 24.959 120.886 24.959C120.887 24.959 120.887 24.959 120.887 24.959C120.887 24.959 120.888 24.959 120.888 24.959C120.888 24.959 120.888 24.959 120.888 24.959C120.889 24.959 120.889 24.959 120.889 24.959C120.889 24.959 120.89 24.959 120.89 24.959C120.89 24.959 120.89 24.959 120.891 24.959C120.891 24.959 120.891 24.959 120.891 24.959C120.891 24.959 120.892 24.959 120.892 24.959C120.892 24.959 120.892 24.959 120.893 24.959C120.893 24.959 120.893 24.959 120.893 24.959C120.893 24.959 120.894 24.959 120.894 24.959C120.894 24.959 120.894 24.959 120.895 24.959C120.895 24.959 120.895 24.959 120.895 24.959C120.896 24.959 120.896 24.959 120.896 24.959C120.896 24.959 120.896 24.959 120.897 24.959C120.897 24.959 120.897 24.959 120.897 24.959C120.898 24.959 120.898 24.959 120.898 24.959C120.898 24.959 120.898 24.959 120.899 24.959C120.899 24.959 120.899 24.959 120.899 24.959C120.9 24.959 120.9 24.959 120.9 24.959C120.9 24.959 120.9 24.959 120.901 24.959C120.901 24.959 120.901 24.959 120.901 24.959C120.902 24.959 120.902 24.959 120.902 24.959C120.902 24.959 120.902 24.959 120.903 24.959C120.903 24.959 120.903 24.959 120.903 24.959C120.904 24.959 120.904 24.959 120.904 24.959C120.904 24.959 120.905 24.959 120.905 24.959C120.905 24.959 120.905 24.959 120.905 24.959C120.906 24.959 120.906 24.959 120.906 24.959C120.906 24.959 120.907 24.959 120.907 24.959C120.907 24.959 120.907 24.959 120.907 24.959C120.908 24.959 120.908 24.959 120.908 24.959C120.908 24.959 120.909 24.959 120.909 24.959C120.909 24.959 120.909 24.959 120.909 24.959C120.91 24.959 120.91 24.959 120.91 24.959C120.91 24.959 120.911 24.959 120.911 24.959C120.911 24.959 120.911 24.959 120.911 24.959C120.912 24.959 120.912 24.959 120.912 24.959C120.912 24.959 120.913 24.959 120.913 24.959C120.913 24.959 120.913 24.959 120.913 24.959C120.914 24.959 120.914 24.959 120.914 24.959C120.914 24.959 120.915 24.959 120.915 24.959C120.915 24.959 120.915 24.959 120.915 24.959C120.916 24.959 120.916 24.959 120.916 24.959C120.916 24.959 120.917 24.959 120.917 24.959C120.917 24.959 120.917 24.959 120.917 24.959C120.918 24.959 120.918 24.959 120.918 24.959C120.918 24.959 120.919 24.959 120.919 24.959C120.919 24.959 120.919 24.959 120.919 24.959C120.92 24.959 120.92 24.959 120.92 24.959C120.92 24.959 120.921 24.959 120.921 24.959C120.921 24.959 120.921 24.959 120.921 24.959C120.922 24.959 120.922 24.959 120.922 24.959C120.922 24.959 120.922 24.959 120.923 24.959C120.923 24.959 120.923 24.959 120.923 24.959C120.924 24.959 120.924 24.959 120.924 24.959C120.924 24.959 120.924 24.959 120.925 24.959C120.925 24.959 120.925 24.959 120.925 24.959C120.926 24.959 120.926 24.959 120.926 24.959C120.926 24.959 120.926 24.959 120.927 24.959C120.927 24.959 120.927 24.959 120.927 24.959C120.928 24.959 120.928 24.959 120.928 24.959C120.928 24.959 120.928 24.959 120.929 24.959C120.929 24.959 120.929 24.959 120.929 24.959C120.93 24.959 120.93 24.959 120.93 24.959C120.93 24.959 120.93 24.959 120.931 24.959C120.931 24.959 120.931 24.959 120.931 24.959C120.931 24.959 120.932 24.959 120.932 24.959C120.932 24.959 120.932 24.959 120.933 24.959C120.933 24.959 120.933 24.959 120.933 24.959C120.933 24.959 120.934 24.959 120.934 24.959C120.934 24.959 120.934 24.959 120.935 24.959C120.935 24.959 120.935 24.959 120.935 24.959C120.935 24.959 120.936 24.959 120.936 24.959C120.936 24.959 120.936 24.959 120.936 24.959C120.937 24.959 120.937 24.959 120.937 24.959C120.937 24.959 120.938 24.959 120.938 24.959C120.938 24.959 120.938 24.959 120.938 24.959C120.939 24.959 120.939 24.959 120.939 24.959C120.939 24.959 120.939 24.959 120.94 24.959C120.94 24.959 120.94 24.959 120.94 24.959C120.941 24.959 120.941 24.959 120.941 24.959C120.941 24.959 120.941 24.959 120.942 24.959C120.942 24.959 120.942 24.959 120.942 24.959C120.943 24.959 120.943 24.959 120.943 24.959C120.943 24.959 120.943 24.959 120.944 24.959C120.944 24.959 120.944 24.959 120.944 24.959C120.944 24.959 120.945 24.959 120.945 24.959C120.945 24.959 120.945 24.959 120.946 24.959C120.946 24.959 120.946 24.959 120.946 24.959C120.946 24.959 120.947 24.959 120.947 24.959C120.947 24.959 120.947 24.959 120.947 24.959C120.948 24.959 120.948 24.959 120.948 24.959C120.948 24.959 120.949 24.959 120.949 24.959C120.949 24.959 120.949 24.959 120.949 24.959C120.95 24.959 120.95 24.959 120.95 24.959C120.95 24.959 120.95 24.959 120.951 24.959C120.951 24.959 120.951 24.959 120.951 24.959C120.952 24.959 120.952 24.959 120.952 24.959C120.952 24.959 120.952 24.959 120.953 24.959C120.953 24.959 120.953 24.959 120.953 24.959C120.953 24.959 120.954 24.959 120.954 24.959C120.954 24.959 120.954 24.959 120.954 24.959C120.955 24.959 120.955 24.959 120.955 24.959C120.955 24.959 120.956 24.959 120.956 24.959C120.956 24.959 120.956 24.959 120.956 24.959C120.957 24.959 120.957 24.959 120.957 24.959C120.957 24.959 120.957 24.959 120.958 24.959C120.958 24.959 120.958 24.959 120.958 24.959C120.959 24.959 120.959 24.959 120.959 24.959C120.959 24.959 120.959 24.959 120.96 24.959C120.96 24.959 120.96 24.959 120.96 24.959C120.96 24.959 120.961 24.959 120.961 24.959C120.961 24.959 120.961 24.959 120.961 24.959C120.962 24.959 120.962 24.959 120.962 24.959C120.962 24.959 120.963 24.959 120.963 24.959C120.963 24.959 120.963 24.959 120.963 24.959C120.964 24.959 120.964 24.959 120.964 24.959C120.964 24.959 120.964 24.959 120.965 24.959C120.965 24.959 120.965 24.959 120.965 24.959C120.965 24.959 120.966 24.959 120.966 24.959C120.966 24.959 120.966 24.959 120.967 24.959C120.967 24.959 120.967 24.959 120.967 24.959C120.967 24.959 120.968 24.959 120.968 24.959C120.968 24.959 120.968 24.959 120.968 24.959C120.969 24.959 120.969 24.959 120.969 24.959C120.969 24.959 120.969 24.959 120.97 24.959C120.97 24.959 120.97 24.959 120.97 24.959C120.97 24.959 120.971 24.959 120.971 24.959C120.971 24.959 120.971 24.959 120.972 24.959C120.972 24.959 120.972 24.959 120.972 24.959C120.972 24.959 120.973 24.959 120.973 24.959C120.973 24.959 120.973 24.959 120.973 24.959C120.974 24.959 120.974 24.959 120.974 24.959C120.974 24.959 120.974 24.959 120.975 24.959C120.975 24.959 120.975 24.959 120.975 24.959C120.975 24.959 120.976 24.959 120.976 24.959C120.976 24.959 120.976 24.959 120.977 24.959C120.977 24.959 120.977 24.959 120.977 24.959C120.977 24.959 120.978 24.959 120.978 24.959C120.978 24.959 120.978 24.959 120.978 24.959C120.979 24.959 120.979 24.959 120.979 24.959C120.979 24.959 120.979 24.959 120.98 24.959C120.98 24.959 120.98 24.959 120.98 24.959C120.98 24.959 120.981 24.959 120.981 24.959C120.981 24.959 120.981 24.959 120.981 24.959C120.982 24.959 120.982 24.959 120.982 24.959C120.982 24.959 120.982 24.959 120.983 24.959C120.983 24.959 120.983 24.959 120.983 24.959C120.984 24.959 120.984 24.959 120.984 24.959C120.984 24.959 120.984 24.959 120.985 24.959C120.985 24.959 120.985 24.959 120.985 24.959C120.985 24.959 120.986 24.959 120.986 24.959C120.986 24.959 120.986 24.959 120.986 24.959C120.987 24.959 120.987 24.959 120.987 24.959C120.987 24.959 120.987 24.959 120.988 24.959C120.988 24.959 120.988 24.959 120.988 24.959C120.988 24.959 120.989 24.959 120.989 24.959C120.989 24.959 120.989 24.959 120.989 24.959C120.99 24.959 120.99 24.959 120.99 24.959C120.99 24.959 120.99 24.959 120.991 24.959C120.991 24.959 120.991 24.959 120.991 24.959C120.992 24.959 120.992 24.959 120.992 24.959C120.992 24.959 120.992 24.959 120.993 24.959C120.993 24.959 120.993 24.959 120.993 24.959C120.993 24.959 120.994 24.959 120.994 24.959C120.994 24.959 120.994 24.959 120.994 24.959C120.995 24.959 120.995 24.959 120.995 24.959C120.995 24.959 120.995 24.959 120.996 24.959C120.996 24.959 120.996 24.959 120.996 24.959C120.996 24.959 120.997 24.959 120.997 24.959C120.997 24.959 120.997 24.959 120.997 24.959C120.998 24.959 120.998 24.959 120.998 24.959C120.998 24.959 120.998 24.959 120.999 24.959C120.999 24.959 120.999 24.959 120.999 24.959C120.999 24.959 121 24.959 121 24.959C121 24.959 121 24.959 121 24.959C121.001 24.959 121.001 24.959 121.001 24.959C121.001 24.959 121.001 24.959 121.002 24.959C121.002 24.959 121.002 24.959 121.002 24.959C121.002 24.959 121.003 24.959 121.003 24.959C121.003 24.959 121.003 24.959 121.003 24.959C121.004 24.959 121.004 24.959 121.004 24.959C121.004 24.959 121.004 24.959 121.005 24.959C121.005 24.959 121.005 24.959 121.005 24.959C121.005 24.959 121.006 24.959 121.006 24.959C121.006 24.959 121.006 24.959 121.006 24.959C121.007 24.959 121.007 24.959 121.007 24.959C121.007 24.959 121.007 24.959 121.008 24.959C121.008 24.959 121.008 24.959 121.008 24.959C121.008 24.959 121.009 24.959 121.009 24.959C121.009 24.959 121.009 24.959 121.009 24.959C121.01 24.959 121.01 24.959 121.01 24.959C121.01 24.959 121.01 24.959 121.011 24.959C121.011 24.959 121.011 24.959 121.011 24.959C121.011 24.959 121.012 24.959 121.012 24.959C121.012 24.959 121.012 24.959 121.012 24.959C121.013 24.959 121.013 24.959 121.013 24.959C121.013 24.959 121.013 24.959 121.014 24.959C121.014 24.959 121.014 24.959 121.014 24.959C121.014 24.959 121.015 24.959 121.015 24.959C121.015 24.959 121.015 24.959 121.015 24.959C121.016 24.959 121.016 24.959 121.016 24.959C121.016 24.959 121.016 24.959 121.017 24.959C121.017 24.959 121.017 24.959 121.017 24.959C121.017 24.959 121.018 24.959 121.018 24.959C121.018 24.959 121.018 24.959 121.018 24.959C121.018 24.959 121.019 24.959 121.019 24.959C121.019 24.959 121.019 24.959 121.019 24.959C121.02 24.959 121.02 24.959 121.02 24.959C121.02 24.959 121.02 24.959 121.021 24.959C121.021 24.959 121.021 24.959 121.021 24.959C121.021 24.959 121.022 24.959 121.022 24.959C121.022 24.959 121.022 24.959 121.022 24.959C121.023 24.959 121.023 24.959 121.023 24.959C121.023 24.959 121.023 24.959 121.024 24.959C121.024 24.959 121.024 24.959 121.024 24.959C121.024 24.959 121.025 24.959 121.025 24.959C121.025 24.959 121.025 24.959 121.025 24.959C121.026 24.959 121.026 24.959 121.026 24.959C121.026 24.959 121.026 24.959 121.027 24.959C121.027 24.959 121.027 24.959 121.027 24.959C121.027 24.959 121.027 24.959 121.028 24.959C121.028 24.959 121.028 24.959 121.028 24.959C121.028 24.959 121.029 24.959 121.029 24.959C121.029 24.959 121.029 24.959 121.029 24.959C121.03 24.959 121.03 24.959 121.03 24.959C121.03 24.959 121.03 24.959 121.031 24.959C121.031 24.959 121.031 24.959 121.031 24.959C121.031 24.959 121.032 24.959 121.032 24.959C121.032 24.959 121.032 24.959 121.032 24.959C121.033 24.959 121.033 24.959 121.033 24.959C121.033 24.959 121.033 24.959 121.033 24.959C121.034 24.959 121.034 24.959 121.034 24.959C121.034 24.959 121.034 24.959 121.035 24.959C121.035 24.959 121.035 24.959 121.035 24.959C121.035 24.959 121.036 24.959 121.036 24.959C121.036 24.959 121.036 24.959 121.036 24.959C121.037 24.959 121.037 24.959 121.037 24.959C121.037 24.959 121.037 24.959 121.038 24.959C121.038 24.959 121.038 24.959 121.038 24.959C121.038 24.959 121.038 24.959 121.039 24.959C121.039 24.959 121.039 24.959 121.039 24.959C121.039 24.959 121.04 24.959 121.04 24.959C121.04 24.959 121.04 24.959 121.04 24.959C121.041 24.959 121.041 24.959 121.041 24.959C121.041 24.959 121.041 24.959 121.042 24.959C121.042 24.959 121.042 24.959 121.042 24.959C121.042 24.959 121.042 24.959 121.043 24.959C121.043 24.959 121.043 24.959 121.043 24.959C121.043 24.959 121.044 24.959 121.044 24.959C121.044 24.959 121.044 24.959 121.044 24.959C121.045 24.959 121.045 24.959 121.045 24.959C121.045 24.959 121.045 24.959 121.046 24.959C121.046 24.959 121.046 24.959 121.046 24.959C121.046 24.959 121.046 24.959 121.047 24.959C121.047 24.959 121.047 24.959 121.047 24.959C121.047 24.959 121.048 24.959 121.048 24.959C121.048 24.959 121.048 24.959 121.048 24.959C121.049 24.959 121.049 24.959 121.049 24.959C121.049 24.959 121.049 24.959 121.049 24.959C121.05 24.959 121.05 24.959 121.05 24.959C121.05 24.959 121.05 24.959 121.051 24.959C121.051 24.959 121.051 24.959 121.051 24.959C121.051 24.959 121.052 24.959 121.052 24.959C121.052 24.959 121.052 24.959 121.052 24.959C121.052 24.959 121.053 24.959 121.053 24.959C121.053 24.959 121.053 24.959 121.053 24.959C121.054 24.959 121.054 24.959 121.054 24.959C121.054 24.959 121.054 24.959 121.055 24.959C121.055 24.959 121.055 24.959 121.055 24.959C121.055 24.959 121.055 24.959 121.056 24.959C121.056 24.959 121.056 24.959 121.056 24.959C121.056 24.959 121.057 24.959 121.057 24.959C121.057 24.959 121.057 24.959 121.057 24.959C121.058 24.959 121.058 24.959 121.058 24.959C121.058 24.959 121.058 24.959 121.058 24.959C121.059 24.959 121.059 24.959 121.059 24.959C121.059 24.959 121.059 24.959 121.06 24.959C121.06 24.959 121.06 24.959 121.06 24.959C121.06 24.959 121.061 24.959 121.061 24.959C121.061 24.959 121.061 24.959 121.061 24.959C121.061 24.959 121.062 24.959 121.062 24.959C121.062 24.959 121.062 24.959 121.062 24.959C121.063 24.959 121.063 24.959 121.063 24.959C121.063 24.959 121.063 24.959 121.063 24.959C121.064 24.959 121.064 24.959 121.064 24.959C121.064 24.959 121.064 24.959 121.065 24.959C121.065 24.959 121.065 24.959 121.065 24.959C121.065 24.959 121.065 24.959 121.066 24.959C121.066 24.959 121.066 24.959 121.066 24.959C121.066 24.959 121.067 24.959 121.067 24.959C121.067 24.959 121.067 24.959 121.067 24.959C121.068 24.959 121.068 24.959 121.068 24.959C121.068 24.959 121.068 24.959 121.068 24.959C121.069 24.959 121.069 24.959 121.069 24.959C121.069 24.959 121.069 24.959 121.07 24.959C121.07 24.959 121.07 24.959 121.07 24.959C121.07 24.959 121.07 24.959 121.071 24.959C121.071 24.959 121.071 24.959 121.071 24.959C121.071 24.959 121.072 24.959 121.072 24.959C121.072 24.959 121.072 24.959 121.072 24.959C121.072 24.959 121.073 24.959 121.073 24.959C121.073 24.959 121.073 24.959 121.073 24.959C121.074 24.959 121.074 24.959 121.074 24.959C121.074 24.959 121.074 24.959 121.074 24.959C121.075 24.959 121.075 24.959 121.075 24.959C121.075 24.959 121.075 24.959 121.076 24.959C121.076 24.959 121.076 24.959 121.076 24.959C121.076 24.959 121.076 24.959 121.077 24.959C121.077 24.959 121.077 24.959 121.077 24.959C121.077 24.959 121.078 24.959 121.078 24.959C121.078 24.959 121.078 24.959 121.078 24.959C121.078 24.959 121.079 24.959 121.079 24.959C121.079 24.959 121.079 24.959 121.079 24.959C121.08 24.959 121.08 24.959 121.08 24.959C121.08 24.959 121.08 24.959 121.08 24.959C121.081 24.959 121.081 24.959 121.081 24.959C121.081 24.959 121.081 24.959 121.081 24.959C121.082 24.959 121.082 24.959 121.082 24.959C121.082 24.959 121.082 24.959 121.083 24.959C121.083 24.959 121.083 24.959 121.083 24.959C121.083 24.959 121.083 24.959 121.084 24.959C121.084 24.959 121.084 24.959 121.084 24.959C121.084 24.959 121.085 24.959 121.085 24.959C121.085 24.959 121.085 24.959 121.085 24.959C121.085 24.959 121.086 24.959 121.086 24.959C121.086 24.959 121.086 24.959 121.086 24.959C121.087 24.959 121.087 24.959 121.087 24.959C121.087 24.959 121.087 24.959 121.087 24.959C121.088 24.959 121.088 24.959 121.088 24.959C121.088 24.959 121.088 24.959 121.088 24.959C121.089 24.959 121.089 24.959 121.089 24.959C121.089 24.959 121.089 24.959 121.09 24.959C121.09 24.959 121.09 24.959 121.09 24.959C121.09 24.959 121.09 24.959 121.091 24.959C121.091 24.959 121.091 24.959 121.091 24.959C121.091 24.959 121.091 24.959 121.092 24.959C121.092 24.959 121.092 24.959 121.092 24.959C121.092 24.959 121.093 24.959 121.093 24.959C121.093 24.959 121.093 24.959 121.093 24.959C121.093 24.959 121.094 24.959 121.094 24.959C121.094 24.959 121.094 24.959 121.094 24.959C121.094 24.959 121.095 24.959 121.095 24.959C121.095 24.959 121.095 24.959 121.095 24.959C121.096 24.959 121.096 24.959 121.096 24.959C121.096 24.959 121.096 24.959 121.096 24.959C121.097 24.959 121.097 24.959 121.097 24.959C121.097 24.959 121.097 24.959 121.097 24.959C121.098 24.959 121.098 24.959 121.098 24.959C121.098 24.959 121.098 24.959 121.098 24.959C121.099 24.959 121.099 24.959 121.099 24.959C121.099 24.959 121.099 24.959 121.1 24.959C121.1 24.959 121.1 24.959 121.1 24.959C121.1 24.959 121.1 24.959 121.101 24.959C121.101 24.959 121.101 24.959 121.101 24.959C121.101 24.959 121.101 24.959 121.102 24.959C121.102 24.959 121.102 24.959 121.102 24.959C121.102 24.959 121.103 24.959 121.103 24.959C121.103 24.959 121.103 24.959 121.103 24.959C121.103 24.959 121.104 24.959 121.104 24.959C121.104 24.959 121.104 24.959 121.104 24.959C121.104 24.959 121.105 24.959 121.105 24.959C121.105 24.959 121.105 24.959 121.105 24.959C121.105 24.959 121.106 24.959 121.106 24.959C121.106 24.959 121.106 24.959 121.106 24.959C121.106 24.959 121.107 24.959 121.107 24.959C121.107 24.959 121.107 24.959 121.107 24.959C121.108 24.959 121.108 24.959 121.108 24.959C121.108 24.959 121.108 24.959 121.108 24.959C121.109 24.959 121.109 24.959 121.109 24.959C121.109 24.959 121.109 24.959 121.109 24.959C121.11 24.959 121.11 24.959 121.11 24.959C121.11 24.959 121.11 24.959 121.11 24.959C121.111 24.959 121.111 24.959 121.111 24.959C121.111 24.959 121.111 24.959 121.111 24.959C121.112 24.959 121.112 24.959 121.112 24.959C121.112 24.959 121.112 24.959 121.112 24.959C121.113 24.959 121.113 24.959 121.113 24.959C121.113 24.959 121.113 24.959 121.114 24.959C121.114 24.959 121.114 24.959 121.114 24.959C121.114 24.959 121.114 24.959 121.115 24.959C121.115 24.959 121.115 24.959 121.115 24.959C121.115 24.959 121.115 24.959 121.116 24.959C121.116 24.959 121.116 24.959 121.116 24.959C121.116 24.959 121.116 24.959 121.117 24.959C121.117 24.959 121.117 24.959 121.117 24.959C121.117 24.959 121.117 24.959 121.118 24.959C121.118 24.959 121.118 24.959 121.118 24.959C121.118 24.959 121.118 24.959 121.119 24.959C121.119 24.959 121.119 24.959 121.119 24.959C121.119 24.959 121.119 24.959 121.12 24.959C121.12 24.959 121.12 24.959 121.12 24.959C121.12 24.959 121.12 24.959 121.121 24.959C121.121 24.959 121.121 24.959 121.121 24.959C121.121 24.959 121.121 24.959 121.122 24.959C121.122 24.959 121.122 24.959 121.122 24.959C121.122 24.959 121.122 24.959 121.123 24.959C121.123 24.959 121.123 24.959 121.123 24.959C121.123 24.959 121.123 24.959 121.124 24.959C121.124 24.959 121.124 24.959 121.124 24.959C121.124 24.959 121.124 24.959 121.125 24.959C121.125 24.959 121.125 24.959 121.125 24.959C121.125 24.959 121.125 24.959 121.126 24.959C121.126 24.959 121.126 24.959 121.126 24.959C121.126 24.959 121.126 24.959 121.127 24.959C121.127 24.959 121.127 24.959 121.127 24.959C121.127 24.959 121.127 24.959 121.128 24.959C121.128 24.959 121.128 24.959 121.128 24.959C121.128 24.959 121.128 24.959 121.129 24.959C121.129 24.959 121.129 24.959 121.129 24.959C121.129 24.959 121.129 24.959 121.13 24.959C121.13 24.959 121.13 24.959 121.13 24.959C121.13 24.959 121.13 24.959 121.131 24.959C121.131 24.959 121.131 24.959 121.131 24.959C121.131 24.959 121.131 24.959 121.132 24.959C121.132 24.959 121.132 24.959 121.132 24.959C121.132 24.959 121.132 24.959 121.133 24.959C121.133 24.959 121.133 24.959 121.133 24.959C121.133 24.959 121.133 24.959 121.134 24.959C121.134 24.959 121.134 24.959 121.134 24.959C121.134 24.959 121.134 24.959 121.135 24.959C121.135 24.959 121.135 24.959 121.135 24.959C121.135 24.959 121.135 24.959 121.136 24.959C121.136 24.959 121.136 24.959 121.136 24.959C121.136 24.959 121.136 24.959 121.137 24.959C121.137 24.959 121.137 24.959 121.137 24.959C121.137 24.959 121.137 24.959 121.137 24.959C121.138 24.959 121.138 24.959 121.138 24.959C121.138 24.959 121.138 24.959 121.138 24.959C121.139 24.959 121.139 24.959 121.139 24.959C121.139 24.959 121.139 24.959 121.139 24.959C121.14 24.959 121.14 24.959 121.14 24.959C121.14 24.959 121.14 24.959 121.14 24.959C121.141 24.959 121.141 24.959 121.141 24.959C121.141 24.959 121.141 24.959 121.141 24.959C121.142 24.959 121.142 24.959 121.142 24.959C121.142 24.959 121.142 24.959 121.142 24.959C121.143 24.959 121.143 24.959 121.143 24.959C121.143 24.959 121.143 24.959 121.143 24.959C121.143 24.959 121.144 24.959 121.144 24.959C121.144 24.959 121.144 24.959 121.144 24.959C121.144 24.959 121.145 24.959 121.145 24.959C121.145 24.959 121.145 24.959 121.145 24.959C121.145 24.959 121.146 24.959 121.146 24.959C121.146 24.959 121.146 24.959 121.146 24.959C121.146 24.959 121.147 24.959 121.147 24.959C121.147 24.959 121.147 24.959 121.147 24.959C121.147 24.959 121.148 24.959 121.148 24.959C121.148 24.959 121.148 24.959 121.148 24.959C121.148 24.959 121.148 24.959 121.149 24.959C121.149 24.959 121.149 24.959 121.149 24.959C121.149 24.959 121.149 24.959 121.15 24.959C121.15 24.959 121.15 24.959 121.15 24.959C121.15 24.959 121.15 24.959 121.151 24.959C121.151 24.959 121.151 24.959 121.151 24.959C121.151 24.959 121.151 24.959 121.151 24.959C121.152 24.959 121.152 24.959 121.152 24.959C121.152 24.959 121.152 24.959 121.152 24.959C121.153 24.959 121.153 24.959 121.153 24.959C121.153 24.959 121.153 24.959 121.153 24.959C121.154 24.959 121.154 24.959 121.154 24.959C121.154 24.959 121.154 24.959 121.154 24.959C121.154 24.959 121.155 24.959 121.155 24.959C121.155 24.959 121.155 24.959 121.155 24.959C121.155 24.959 121.156 24.959 121.156 24.959C121.156 24.959 121.156 24.959 121.156 24.959C121.156 24.959 121.157 24.959 121.157 24.959C121.157 24.959 121.157 24.959 121.157 24.959C121.157 24.959 121.157 24.959 121.158 24.959C121.158 24.959 121.158 24.959 121.158 24.959C121.158 24.959 121.158 24.959 121.159 24.959C121.159 24.959 121.159 24.959 121.159 24.959C121.159 24.959 121.159 24.959 121.16 24.959C121.16 24.959 121.16 24.959 121.16 24.959V23.7576C121.16 23.7576 121.16 23.7576 121.16 23.7576C121.159 23.7576 121.159 23.7576 121.159 23.7576C121.159 23.7576 121.159 23.7576 121.159 23.7576C121.158 23.7576 121.158 23.7576 121.158 23.7576C121.158 23.7576 121.158 23.7576 121.158 23.7576C121.157 23.7576 121.157 23.7576 121.157 23.7576C121.157 23.7576 121.157 23.7576 121.157 23.7576C121.157 23.7576 121.156 23.7576 121.156 23.7576C121.156 23.7576 121.156 23.7576 121.156 23.7576C121.156 23.7576 121.155 23.7576 121.155 23.7576C121.155 23.7576 121.155 23.7576 121.155 23.7576C121.155 23.7576 121.154 23.7576 121.154 23.7576C121.154 23.7576 121.154 23.7576 121.154 23.7576C121.154 23.7576 121.154 23.7576 121.153 23.7576C121.153 23.7576 121.153 23.7576 121.153 23.7576C121.153 23.7576 121.153 23.7576 121.152 23.7576C121.152 23.7576 121.152 23.7576 121.152 23.7576C121.152 23.7576 121.152 23.7576 121.151 23.7576C121.151 23.7576 121.151 23.7576 121.151 23.7576C121.151 23.7576 121.151 23.7576 121.151 23.7576C121.15 23.7576 121.15 23.7576 121.15 23.7576C121.15 23.7576 121.15 23.7576 121.15 23.7576C121.149 23.7576 121.149 23.7576 121.149 23.7576C121.149 23.7576 121.149 23.7576 121.149 23.7576C121.148 23.7576 121.148 23.7576 121.148 23.7576C121.148 23.7576 121.148 23.7576 121.148 23.7576C121.148 23.7576 121.147 23.7576 121.147 23.7576C121.147 23.7576 121.147 23.7576 121.147 23.7576C121.147 23.7576 121.146 23.7576 121.146 23.7576C121.146 23.7576 121.146 23.7576 121.146 23.7576C121.146 23.7576 121.145 23.7576 121.145 23.7576C121.145 23.7576 121.145 23.7576 121.145 23.7576C121.145 23.7576 121.144 23.7576 121.144 23.7576C121.144 23.7576 121.144 23.7576 121.144 23.7576C121.144 23.7576 121.143 23.7576 121.143 23.7576C121.143 23.7576 121.143 23.7576 121.143 23.7576C121.143 23.7576 121.143 23.7576 121.142 23.7576C121.142 23.7576 121.142 23.7576 121.142 23.7576C121.142 23.7576 121.142 23.7576 121.141 23.7576C121.141 23.7576 121.141 23.7576 121.141 23.7576C121.141 23.7576 121.141 23.7576 121.14 23.7576C121.14 23.7576 121.14 23.7576 121.14 23.7576C121.14 23.7576 121.14 23.7576 121.139 23.7576C121.139 23.7576 121.139 23.7576 121.139 23.7576C121.139 23.7576 121.139 23.7576 121.138 23.7576C121.138 23.7576 121.138 23.7576 121.138 23.7576C121.138 23.7576 121.138 23.7576 121.137 23.7576C121.137 23.7576 121.137 23.7576 121.137 23.7576C121.137 23.7576 121.137 23.7576 121.137 23.7576C121.136 23.7576 121.136 23.7576 121.136 23.7576C121.136 23.7576 121.136 23.7576 121.136 23.7576C121.135 23.7576 121.135 23.7576 121.135 23.7576C121.135 23.7576 121.135 23.7576 121.135 23.7576C121.134 23.7576 121.134 23.7576 121.134 23.7576C121.134 23.7576 121.134 23.7576 121.134 23.7576C121.133 23.7576 121.133 23.7576 121.133 23.7576C121.133 23.7576 121.133 23.7576 121.133 23.7576C121.132 23.7576 121.132 23.7576 121.132 23.7576C121.132 23.7576 121.132 23.7576 121.132 23.7576C121.131 23.7576 121.131 23.7576 121.131 23.7576C121.131 23.7576 121.131 23.7576 121.131 23.7576C121.13 23.7576 121.13 23.7576 121.13 23.7576C121.13 23.7576 121.13 23.7576 121.13 23.7576C121.129 23.7576 121.129 23.7576 121.129 23.7576C121.129 23.7576 121.129 23.7576 121.129 23.7576C121.128 23.7576 121.128 23.7576 121.128 23.7576C121.128 23.7576 121.128 23.7576 121.128 23.7576C121.127 23.7576 121.127 23.7576 121.127 23.7576C121.127 23.7576 121.127 23.7576 121.127 23.7576C121.126 23.7576 121.126 23.7576 121.126 23.7576C121.126 23.7576 121.126 23.7576 121.126 23.7576C121.125 23.7576 121.125 23.7576 121.125 23.7576C121.125 23.7576 121.125 23.7576 121.125 23.7576C121.124 23.7576 121.124 23.7576 121.124 23.7576C121.124 23.7576 121.124 23.7576 121.124 23.7576C121.123 23.7576 121.123 23.7576 121.123 23.7576C121.123 23.7576 121.123 23.7576 121.123 23.7576C121.122 23.7576 121.122 23.7576 121.122 23.7576C121.122 23.7576 121.122 23.7576 121.122 23.7576C121.121 23.7576 121.121 23.7576 121.121 23.7576C121.121 23.7576 121.121 23.7576 121.121 23.7576C121.12 23.7576 121.12 23.7576 121.12 23.7576C121.12 23.7576 121.12 23.7576 121.12 23.7576C121.119 23.7576 121.119 23.7576 121.119 23.7576C121.119 23.7576 121.119 23.7576 121.119 23.7576C121.118 23.7576 121.118 23.7576 121.118 23.7576C121.118 23.7576 121.118 23.7576 121.118 23.7576C121.117 23.7576 121.117 23.7576 121.117 23.7576C121.117 23.7576 121.117 23.7576 121.117 23.7576C121.116 23.7576 121.116 23.7576 121.116 23.7576C121.116 23.7576 121.116 23.7576 121.116 23.7576C121.115 23.7576 121.115 23.7576 121.115 23.7576C121.115 23.7576 121.115 23.7576 121.115 23.7576C121.114 23.7576 121.114 23.7576 121.114 23.7576C121.114 23.7576 121.114 23.7576 121.114 23.7576C121.113 23.7576 121.113 23.7576 121.113 23.7576C121.113 23.7576 121.113 23.7576 121.112 23.7576C121.112 23.7576 121.112 23.7576 121.112 23.7576C121.112 23.7576 121.112 23.7576 121.111 23.7576C121.111 23.7576 121.111 23.7576 121.111 23.7576C121.111 23.7576 121.111 23.7576 121.11 23.7576C121.11 23.7576 121.11 23.7576 121.11 23.7576C121.11 23.7576 121.11 23.7576 121.109 23.7576C121.109 23.7576 121.109 23.7576 121.109 23.7576C121.109 23.7576 121.109 23.7576 121.108 23.7576C121.108 23.7576 121.108 23.7576 121.108 23.7576C121.108 23.7576 121.108 23.7576 121.107 23.7576C121.107 23.7576 121.107 23.7576 121.107 23.7576C121.107 23.7576 121.106 23.7576 121.106 23.7576C121.106 23.7576 121.106 23.7576 121.106 23.7576C121.106 23.7576 121.105 23.7576 121.105 23.7576C121.105 23.7576 121.105 23.7576 121.105 23.7576C121.105 23.7576 121.104 23.7576 121.104 23.7576C121.104 23.7576 121.104 23.7576 121.104 23.7576C121.104 23.7576 121.103 23.7576 121.103 23.7576C121.103 23.7576 121.103 23.7576 121.103 23.7576C121.103 23.7576 121.102 23.7576 121.102 23.7576C121.102 23.7576 121.102 23.7576 121.102 23.7576C121.101 23.7576 121.101 23.7576 121.101 23.7576C121.101 23.7576 121.101 23.7576 121.101 23.7576C121.1 23.7576 121.1 23.7576 121.1 23.7576C121.1 23.7576 121.1 23.7576 121.1 23.7576C121.099 23.7576 121.099 23.7576 121.099 23.7576C121.099 23.7576 121.099 23.7576 121.098 23.7576C121.098 23.7576 121.098 23.7576 121.098 23.7576C121.098 23.7576 121.098 23.7576 121.097 23.7576C121.097 23.7576 121.097 23.7576 121.097 23.7576C121.097 23.7576 121.097 23.7576 121.096 23.7576C121.096 23.7576 121.096 23.7576 121.096 23.7576C121.096 23.7576 121.096 23.7576 121.095 23.7576C121.095 23.7576 121.095 23.7576 121.095 23.7576C121.095 23.7576 121.094 23.7576 121.094 23.7576C121.094 23.7576 121.094 23.7576 121.094 23.7576C121.094 23.7576 121.093 23.7576 121.093 23.7576C121.093 23.7576 121.093 23.7576 121.093 23.7576C121.093 23.7576 121.092 23.7576 121.092 23.7576C121.092 23.7576 121.092 23.7576 121.092 23.7576C121.091 23.7576 121.091 23.7576 121.091 23.7576C121.091 23.7576 121.091 23.7576 121.091 23.7576C121.09 23.7576 121.09 23.7576 121.09 23.7576C121.09 23.7576 121.09 23.7576 121.09 23.7576C121.089 23.7576 121.089 23.7576 121.089 23.7576C121.089 23.7576 121.089 23.7576 121.088 23.7576C121.088 23.7576 121.088 23.7576 121.088 23.7576C121.088 23.7576 121.088 23.7576 121.087 23.7576C121.087 23.7576 121.087 23.7576 121.087 23.7576C121.087 23.7576 121.087 23.7576 121.086 23.7576C121.086 23.7576 121.086 23.7576 121.086 23.7576C121.086 23.7576 121.085 23.7576 121.085 23.7576C121.085 23.7576 121.085 23.7576 121.085 23.7576C121.085 23.7576 121.084 23.7576 121.084 23.7576C121.084 23.7576 121.084 23.7576 121.084 23.7576C121.083 23.7576 121.083 23.7576 121.083 23.7576C121.083 23.7576 121.083 23.7576 121.083 23.7576C121.082 23.7576 121.082 23.7576 121.082 23.7576C121.082 23.7576 121.082 23.7576 121.081 23.7576C121.081 23.7576 121.081 23.7576 121.081 23.7576C121.081 23.7576 121.081 23.7576 121.08 23.7576C121.08 23.7576 121.08 23.7576 121.08 23.7576C121.08 23.7576 121.08 23.7576 121.079 23.7576C121.079 23.7576 121.079 23.7576 121.079 23.7576C121.079 23.7576 121.078 23.7576 121.078 23.7576C121.078 23.7576 121.078 23.7576 121.078 23.7576C121.078 23.7576 121.077 23.7576 121.077 23.7576C121.077 23.7576 121.077 23.7576 121.077 23.7576C121.076 23.7576 121.076 23.7576 121.076 23.7576C121.076 23.7576 121.076 23.7576 121.076 23.7576C121.075 23.7576 121.075 23.7576 121.075 23.7576C121.075 23.7576 121.075 23.7576 121.074 23.7576C121.074 23.7576 121.074 23.7576 121.074 23.7576C121.074 23.7576 121.074 23.7576 121.073 23.7576C121.073 23.7576 121.073 23.7576 121.073 23.7576C121.073 23.7576 121.072 23.7576 121.072 23.7576C121.072 23.7576 121.072 23.7576 121.072 23.7576C121.072 23.7576 121.071 23.7576 121.071 23.7576C121.071 23.7576 121.071 23.7576 121.071 23.7576C121.07 23.7576 121.07 23.7576 121.07 23.7576C121.07 23.7576 121.07 23.7576 121.07 23.7576C121.069 23.7576 121.069 23.7576 121.069 23.7576C121.069 23.7576 121.069 23.7576 121.068 23.7576C121.068 23.7576 121.068 23.7576 121.068 23.7576C121.068 23.7576 121.068 23.7576 121.067 23.7576C121.067 23.7576 121.067 23.7576 121.067 23.7576C121.067 23.7576 121.066 23.7576 121.066 23.7576C121.066 23.7576 121.066 23.7576 121.066 23.7576C121.065 23.7576 121.065 23.7576 121.065 23.7576C121.065 23.7576 121.065 23.7576 121.065 23.7576C121.064 23.7576 121.064 23.7576 121.064 23.7576C121.064 23.7576 121.064 23.7576 121.063 23.7576C121.063 23.7576 121.063 23.7576 121.063 23.7576C121.063 23.7576 121.063 23.7576 121.062 23.7576C121.062 23.7576 121.062 23.7576 121.062 23.7576C121.062 23.7576 121.061 23.7576 121.061 23.7576C121.061 23.7576 121.061 23.7576 121.061 23.7576C121.061 23.7576 121.06 23.7576 121.06 23.7576C121.06 23.7576 121.06 23.7576 121.06 23.7576C121.059 23.7576 121.059 23.7576 121.059 23.7576C121.059 23.7576 121.059 23.7576 121.058 23.7576C121.058 23.7576 121.058 23.7576 121.058 23.7576C121.058 23.7576 121.058 23.7576 121.057 23.7576C121.057 23.7576 121.057 23.7576 121.057 23.7576C121.057 23.7576 121.056 23.7576 121.056 23.7576C121.056 23.7576 121.056 23.7576 121.056 23.7576C121.055 23.7576 121.055 23.7576 121.055 23.7576C121.055 23.7576 121.055 23.7576 121.055 23.7576C121.054 23.7576 121.054 23.7576 121.054 23.7576C121.054 23.7576 121.054 23.7576 121.053 23.7576C121.053 23.7576 121.053 23.7576 121.053 23.7576C121.053 23.7576 121.052 23.7576 121.052 23.7576C121.052 23.7576 121.052 23.7576 121.052 23.7576C121.052 23.7576 121.051 23.7576 121.051 23.7576C121.051 23.7576 121.051 23.7576 121.051 23.7576C121.05 23.7576 121.05 23.7576 121.05 23.7576C121.05 23.7576 121.05 23.7576 121.049 23.7576C121.049 23.7576 121.049 23.7576 121.049 23.7576C121.049 23.7576 121.049 23.7576 121.048 23.7576C121.048 23.7576 121.048 23.7576 121.048 23.7576C121.048 23.7576 121.047 23.7576 121.047 23.7576C121.047 23.7576 121.047 23.7576 121.047 23.7576C121.046 23.7576 121.046 23.7576 121.046 23.7576C121.046 23.7576 121.046 23.7576 121.046 23.7576C121.045 23.7576 121.045 23.7576 121.045 23.7576C121.045 23.7576 121.045 23.7576 121.044 23.7576C121.044 23.7576 121.044 23.7576 121.044 23.7576C121.044 23.7576 121.043 23.7576 121.043 23.7576C121.043 23.7576 121.043 23.7576 121.043 23.7576C121.042 23.7576 121.042 23.7576 121.042 23.7576C121.042 23.7576 121.042 23.7576 121.042 23.7576C121.041 23.7576 121.041 23.7576 121.041 23.7576C121.041 23.7576 121.041 23.7576 121.04 23.7576C121.04 23.7576 121.04 23.7576 121.04 23.7576C121.04 23.7576 121.039 23.7576 121.039 23.7576C121.039 23.7576 121.039 23.7576 121.039 23.7576C121.038 23.7576 121.038 23.7576 121.038 23.7576C121.038 23.7576 121.038 23.7576 121.038 23.7576C121.037 23.7576 121.037 23.7576 121.037 23.7576C121.037 23.7576 121.037 23.7576 121.036 23.7576C121.036 23.7576 121.036 23.7576 121.036 23.7576C121.036 23.7576 121.035 23.7576 121.035 23.7576C121.035 23.7576 121.035 23.7576 121.035 23.7576C121.034 23.7576 121.034 23.7576 121.034 23.7576C121.034 23.7576 121.034 23.7576 121.033 23.7576C121.033 23.7576 121.033 23.7576 121.033 23.7576C121.033 23.7576 121.033 23.7576 121.032 23.7576C121.032 23.7576 121.032 23.7576 121.032 23.7576C121.032 23.7576 121.031 23.7576 121.031 23.7576C121.031 23.7576 121.031 23.7576 121.031 23.7576C121.03 23.7576 121.03 23.7576 121.03 23.7576C121.03 23.7576 121.03 23.7576 121.029 23.7576C121.029 23.7576 121.029 23.7576 121.029 23.7576C121.029 23.7576 121.028 23.7576 121.028 23.7576C121.028 23.7576 121.028 23.7576 121.028 23.7576C121.027 23.7576 121.027 23.7576 121.027 23.7576C121.027 23.7576 121.027 23.7576 121.027 23.7576C121.026 23.7576 121.026 23.7576 121.026 23.7576C121.026 23.7576 121.026 23.7576 121.025 23.7576C121.025 23.7576 121.025 23.7576 121.025 23.7576C121.025 23.7576 121.024 23.7576 121.024 23.7576C121.024 23.7576 121.024 23.7576 121.024 23.7576C121.023 23.7576 121.023 23.7576 121.023 23.7576C121.023 23.7576 121.023 23.7576 121.022 23.7576C121.022 23.7576 121.022 23.7576 121.022 23.7576C121.022 23.7576 121.021 23.7576 121.021 23.7576C121.021 23.7576 121.021 23.7576 121.021 23.7576C121.02 23.7576 121.02 23.7576 121.02 23.7576C121.02 23.7576 121.02 23.7576 121.019 23.7576C121.019 23.7576 121.019 23.7576 121.019 23.7576C121.019 23.7576 121.018 23.7576 121.018 23.7576C121.018 23.7576 121.018 23.7576 121.018 23.7576C121.018 23.7576 121.017 23.7576 121.017 23.7576C121.017 23.7576 121.017 23.7576 121.017 23.7576C121.016 23.7576 121.016 23.7576 121.016 23.7576C121.016 23.7576 121.016 23.7576 121.015 23.7576C121.015 23.7576 121.015 23.7576 121.015 23.7576C121.015 23.7576 121.014 23.7576 121.014 23.7576C121.014 23.7576 121.014 23.7576 121.014 23.7576C121.013 23.7576 121.013 23.7576 121.013 23.7576C121.013 23.7576 121.013 23.7576 121.012 23.7576C121.012 23.7576 121.012 23.7576 121.012 23.7576C121.012 23.7576 121.011 23.7576 121.011 23.7576C121.011 23.7576 121.011 23.7576 121.011 23.7576C121.01 23.7576 121.01 23.7576 121.01 23.7576C121.01 23.7576 121.01 23.7576 121.009 23.7576C121.009 23.7576 121.009 23.7576 121.009 23.7576C121.009 23.7576 121.008 23.7576 121.008 23.7576C121.008 23.7576 121.008 23.7576 121.008 23.7576C121.007 23.7576 121.007 23.7576 121.007 23.7576C121.007 23.7576 121.007 23.7576 121.006 23.7576C121.006 23.7576 121.006 23.7576 121.006 23.7576C121.006 23.7576 121.005 23.7576 121.005 23.7576C121.005 23.7576 121.005 23.7576 121.005 23.7576C121.004 23.7576 121.004 23.7576 121.004 23.7576C121.004 23.7576 121.004 23.7576 121.003 23.7576C121.003 23.7576 121.003 23.7576 121.003 23.7576C121.003 23.7576 121.002 23.7576 121.002 23.7576C121.002 23.7576 121.002 23.7576 121.002 23.7576C121.001 23.7576 121.001 23.7576 121.001 23.7576C121.001 23.7576 121.001 23.7576 121 23.7576C121 23.7576 121 23.7576 121 23.7576C121 23.7576 120.999 23.7576 120.999 23.7576C120.999 23.7576 120.999 23.7576 120.999 23.7576C120.998 23.7576 120.998 23.7576 120.998 23.7576C120.998 23.7576 120.998 23.7576 120.997 23.7576C120.997 23.7576 120.997 23.7576 120.997 23.7576C120.997 23.7576 120.996 23.7576 120.996 23.7576C120.996 23.7576 120.996 23.7576 120.996 23.7576C120.995 23.7576 120.995 23.7576 120.995 23.7576C120.995 23.7576 120.995 23.7576 120.994 23.7576C120.994 23.7576 120.994 23.7576 120.994 23.7576C120.994 23.7576 120.993 23.7576 120.993 23.7576C120.993 23.7576 120.993 23.7576 120.993 23.7576C120.992 23.7576 120.992 23.7576 120.992 23.7576C120.992 23.7576 120.992 23.7576 120.991 23.7576C120.991 23.7576 120.991 23.7576 120.991 23.7576C120.99 23.7576 120.99 23.7576 120.99 23.7576C120.99 23.7576 120.99 23.7576 120.989 23.7576C120.989 23.7576 120.989 23.7576 120.989 23.7576C120.989 23.7576 120.988 23.7576 120.988 23.7576C120.988 23.7576 120.988 23.7576 120.988 23.7576C120.987 23.7576 120.987 23.7576 120.987 23.7576C120.987 23.7576 120.987 23.7576 120.986 23.7576C120.986 23.7576 120.986 23.7576 120.986 23.7576C120.986 23.7576 120.985 23.7576 120.985 23.7576C120.985 23.7576 120.985 23.7576 120.985 23.7576C120.984 23.7576 120.984 23.7576 120.984 23.7576C120.984 23.7576 120.984 23.7576 120.983 23.7576C120.983 23.7576 120.983 23.7576 120.983 23.7576C120.982 23.7576 120.982 23.7576 120.982 23.7576C120.982 23.7576 120.982 23.7576 120.981 23.7576C120.981 23.7576 120.981 23.7576 120.981 23.7576C120.981 23.7576 120.98 23.7576 120.98 23.7576C120.98 23.7576 120.98 23.7576 120.98 23.7576C120.979 23.7576 120.979 23.7576 120.979 23.7576C120.979 23.7576 120.979 23.7576 120.978 23.7576C120.978 23.7576 120.978 23.7576 120.978 23.7576C120.978 23.7576 120.977 23.7576 120.977 23.7576C120.977 23.7576 120.977 23.7576 120.977 23.7576C120.976 23.7576 120.976 23.7576 120.976 23.7576C120.976 23.7576 120.975 23.7576 120.975 23.7576C120.975 23.7576 120.975 23.7576 120.975 23.7576C120.974 23.7576 120.974 23.7576 120.974 23.7576C120.974 23.7576 120.974 23.7576 120.973 23.7576C120.973 23.7576 120.973 23.7576 120.973 23.7576C120.973 23.7576 120.972 23.7576 120.972 23.7576C120.972 23.7576 120.972 23.7576 120.972 23.7576C120.971 23.7576 120.971 23.7576 120.971 23.7576C120.971 23.7576 120.97 23.7576 120.97 23.7576C120.97 23.7576 120.97 23.7576 120.97 23.7576C120.969 23.7576 120.969 23.7576 120.969 23.7576C120.969 23.7576 120.969 23.7576 120.968 23.7576C120.968 23.7576 120.968 23.7576 120.968 23.7576C120.968 23.7576 120.967 23.7576 120.967 23.7576C120.967 23.7576 120.967 23.7576 120.967 23.7576C120.966 23.7576 120.966 23.7576 120.966 23.7576C120.966 23.7576 120.965 23.7576 120.965 23.7576C120.965 23.7576 120.965 23.7576 120.965 23.7576C120.964 23.7576 120.964 23.7576 120.964 23.7576C120.964 23.7576 120.964 23.7576 120.963 23.7576C120.963 23.7576 120.963 23.7576 120.963 23.7576C120.963 23.7576 120.962 23.7576 120.962 23.7576C120.962 23.7576 120.962 23.7576 120.961 23.7576C120.961 23.7576 120.961 23.7576 120.961 23.7576C120.961 23.7576 120.96 23.7576 120.96 23.7576C120.96 23.7576 120.96 23.7576 120.96 23.7576C120.959 23.7576 120.959 23.7576 120.959 23.7576C120.959 23.7576 120.959 23.7576 120.958 23.7576C120.958 23.7576 120.958 23.7576 120.958 23.7576C120.957 23.7576 120.957 23.7576 120.957 23.7576C120.957 23.7576 120.957 23.7576 120.956 23.7576C120.956 23.7576 120.956 23.7576 120.956 23.7576C120.956 23.7576 120.955 23.7576 120.955 23.7576C120.955 23.7576 120.955 23.7576 120.954 23.7576C120.954 23.7576 120.954 23.7576 120.954 23.7576C120.954 23.7576 120.953 23.7576 120.953 23.7576C120.953 23.7576 120.953 23.7576 120.953 23.7576C120.952 23.7576 120.952 23.7576 120.952 23.7576C120.952 23.7576 120.952 23.7576 120.951 23.7576C120.951 23.7576 120.951 23.7576 120.951 23.7576C120.95 23.7576 120.95 23.7576 120.95 23.7576C120.95 23.7576 120.95 23.7576 120.949 23.7576C120.949 23.7576 120.949 23.7576 120.949 23.7576C120.949 23.7576 120.948 23.7576 120.948 23.7576C120.948 23.7576 120.948 23.7576 120.947 23.7576C120.947 23.7576 120.947 23.7576 120.947 23.7576C120.947 23.7576 120.946 23.7576 120.946 23.7576C120.946 23.7576 120.946 23.7576 120.946 23.7576C120.945 23.7576 120.945 23.7576 120.945 23.7576C120.945 23.7576 120.944 23.7576 120.944 23.7576C120.944 23.7576 120.944 23.7576 120.944 23.7576C120.943 23.7576 120.943 23.7576 120.943 23.7576C120.943 23.7576 120.943 23.7576 120.942 23.7576C120.942 23.7576 120.942 23.7576 120.942 23.7576C120.941 23.7576 120.941 23.7576 120.941 23.7576C120.941 23.7576 120.941 23.7576 120.94 23.7576C120.94 23.7576 120.94 23.7576 120.94 23.7576C120.939 23.7576 120.939 23.7576 120.939 23.7576C120.939 23.7576 120.939 23.7576 120.938 23.7576C120.938 23.7576 120.938 23.7576 120.938 23.7576C120.938 23.7576 120.937 23.7576 120.937 23.7576C120.937 23.7576 120.937 23.7576 120.936 23.7576C120.936 23.7576 120.936 23.7576 120.936 23.7576C120.936 23.7576 120.935 23.7576 120.935 23.7576C120.935 23.7576 120.935 23.7576 120.935 23.7576C120.934 23.7576 120.934 23.7576 120.934 23.7576C120.934 23.7576 120.933 23.7576 120.933 23.7576C120.933 23.7576 120.933 23.7576 120.933 23.7576C120.932 23.7576 120.932 23.7576 120.932 23.7576C120.932 23.7576 120.931 23.7576 120.931 23.7576C120.931 23.7576 120.931 23.7576 120.931 23.7576C120.93 23.7576 120.93 23.7576 120.93 23.7576C120.93 23.7576 120.93 23.7576 120.929 23.7576C120.929 23.7576 120.929 23.7576 120.929 23.7576C120.928 23.7576 120.928 23.7576 120.928 23.7576C120.928 23.7576 120.928 23.7576 120.927 23.7576C120.927 23.7576 120.927 23.7576 120.927 23.7576C120.926 23.7576 120.926 23.7576 120.926 23.7576C120.926 23.7576 120.926 23.7576 120.925 23.7576C120.925 23.7576 120.925 23.7576 120.925 23.7576C120.924 23.7576 120.924 23.7576 120.924 23.7576C120.924 23.7576 120.924 23.7576 120.923 23.7576C120.923 23.7576 120.923 23.7576 120.923 23.7576C120.922 23.7576 120.922 23.7576 120.922 23.7576C120.922 23.7576 120.922 23.7576 120.921 23.7576C120.921 23.7576 120.921 23.7576 120.921 23.7576C120.921 23.7576 120.92 23.7576 120.92 23.7576C120.92 23.7576 120.92 23.7576 120.919 23.7576C120.919 23.7576 120.919 23.7576 120.919 23.7576C120.919 23.7576 120.918 23.7576 120.918 23.7576C120.918 23.7576 120.918 23.7576 120.917 23.7576C120.917 23.7576 120.917 23.7576 120.917 23.7576C120.917 23.7576 120.916 23.7576 120.916 23.7576C120.916 23.7576 120.916 23.7576 120.915 23.7576C120.915 23.7576 120.915 23.7576 120.915 23.7576C120.915 23.7576 120.914 23.7576 120.914 23.7576C120.914 23.7576 120.914 23.7576 120.913 23.7576C120.913 23.7576 120.913 23.7576 120.913 23.7576C120.913 23.7576 120.912 23.7576 120.912 23.7576C120.912 23.7576 120.912 23.7576 120.911 23.7576C120.911 23.7576 120.911 23.7576 120.911 23.7576C120.911 23.7576 120.91 23.7576 120.91 23.7576C120.91 23.7576 120.91 23.7576 120.909 23.7576C120.909 23.7576 120.909 23.7576 120.909 23.7576C120.909 23.7576 120.908 23.7576 120.908 23.7576C120.908 23.7576 120.908 23.7576 120.907 23.7576C120.907 23.7576 120.907 23.7576 120.907 23.7576C120.907 23.7576 120.906 23.7576 120.906 23.7576C120.906 23.7576 120.906 23.7576 120.905 23.7576C120.905 23.7576 120.905 23.7576 120.905 23.7576C120.905 23.7576 120.904 23.7576 120.904 23.7576C120.904 23.7576 120.904 23.7576 120.903 23.7576C120.903 23.7576 120.903 23.7576 120.903 23.7576C120.902 23.7576 120.902 23.7576 120.902 23.7576C120.902 23.7576 120.902 23.7576 120.901 23.7576C120.901 23.7576 120.901 23.7576 120.901 23.7576C120.9 23.7576 120.9 23.7576 120.9 23.7576C120.9 23.7576 120.9 23.7576 120.899 23.7576C120.899 23.7576 120.899 23.7576 120.899 23.7576C120.898 23.7576 120.898 23.7576 120.898 23.7576C120.898 23.7576 120.898 23.7576 120.897 23.7576C120.897 23.7576 120.897 23.7576 120.897 23.7576C120.896 23.7576 120.896 23.7576 120.896 23.7576C120.896 23.7576 120.896 23.7576 120.895 23.7576C120.895 23.7576 120.895 23.7576 120.895 23.7576C120.894 23.7576 120.894 23.7576 120.894 23.7576C120.894 23.7576 120.893 23.7576 120.893 23.7576C120.893 23.7576 120.893 23.7576 120.893 23.7576C120.892 23.7576 120.892 23.7576 120.892 23.7576C120.892 23.7576 120.891 23.7576 120.891 23.7576C120.891 23.7576 120.891 23.7576 120.891 23.7576C120.89 23.7576 120.89 23.7576 120.89 23.7576C120.89 23.7576 120.889 23.7576 120.889 23.7576C120.889 23.7576 120.889 23.7576 120.888 23.7576C120.888 23.7576 120.888 23.7576 120.888 23.7576C120.888 23.7576 120.887 23.7576 120.887 23.7576C120.887 23.7576 120.887 23.7576 120.886 23.7576C120.886 23.7576 120.886 23.7576 120.886 23.7576C120.886 23.7576 120.885 23.7576 120.885 23.7576C120.885 23.7576 120.885 23.7576 120.884 23.7576C120.884 23.7576 120.884 23.7576 120.884 23.7576C120.883 23.7576 120.883 23.7576 120.883 23.7576C120.883 23.7576 120.883 23.7576 120.882 23.7576C120.882 23.7576 120.882 23.7576 120.882 23.7576C120.881 23.7576 120.881 23.7576 120.881 23.7576C120.881 23.7576 120.88 23.7576 120.88 23.7576C120.88 23.7576 120.88 23.7576 120.88 23.7576C120.879 23.7576 120.879 23.7576 120.879 23.7576C120.879 23.7576 120.878 23.7576 120.878 23.7576C120.878 23.7576 120.878 23.7576 120.877 23.7576C120.877 23.7576 120.877 23.7576 120.877 23.7576C120.877 23.7576 120.876 23.7576 120.876 23.7576C120.876 23.7576 120.876 23.7576 120.875 23.7576C120.875 23.7576 120.875 23.7576 120.875 23.7576C120.874 23.7576 120.874 23.7576 120.874 23.7576C120.874 23.7576 120.874 23.7576 120.873 23.7576C120.873 23.7576 120.873 23.7576 120.873 23.7576C120.872 23.7576 120.872 23.7576 120.872 23.7576C120.872 23.7576 120.871 23.7576 120.871 23.7576C120.871 23.7576 120.871 23.7576 120.871 23.7576C120.87 23.7576 120.87 23.7576 120.87 23.7576C120.87 23.7576 120.869 23.7576 120.869 23.7576C120.869 23.7576 120.869 23.7576 120.868 23.7576C120.868 23.7576 120.868 23.7576 120.868 23.7576C120.868 23.7576 120.867 23.7576 120.867 23.7576C120.867 23.7576 120.867 23.7576 120.866 23.7576C120.866 23.7576 120.866 23.7576 120.866 23.7576C120.865 23.7576 120.865 23.7576 120.865 23.7576C120.865 23.7576 120.865 23.7576 120.864 23.7576C120.864 23.7576 120.864 23.7576 120.864 23.7576C120.863 23.7576 120.863 23.7576 120.863 23.7576C120.863 23.7576 120.862 23.7576 120.862 23.7576C120.862 23.7576 120.862 23.7576 120.861 23.7576C120.861 23.7576 120.861 23.7576 120.861 23.7576V24.959ZM121.16 24.959C122.304 24.959 123.284 24.6562 124.033 23.989L123.233 23.0922C122.759 23.5153 122.09 23.7576 121.16 23.7576V24.959ZM124.028 23.9933C124.799 23.3211 125.171 22.417 125.171 21.3467H123.97C123.97 22.1113 123.718 22.6698 123.238 23.0879L124.028 23.9933ZM125.171 21.3467C125.171 20.2766 124.798 19.3787 124.017 18.7303L123.25 19.6549C123.718 20.0436 123.97 20.5818 123.97 21.3467H125.171ZM124.022 18.7344C123.269 18.0964 122.27 17.8141 121.1 17.8141V19.0154C122.084 19.0154 122.774 19.2517 123.245 19.6508L124.022 18.7344ZM121.1 17.8141H120.442V19.0154H121.1V17.8141ZM119.841 18.4147V24.3184H121.043V18.4147H119.841ZM120.442 12.7727H121V11.5713H120.442V12.7727ZM121 12.7727C122.087 12.7727 123.022 12.5188 123.733 11.9398L122.975 11.008C122.543 11.3598 121.908 11.5713 121 11.5713V12.7727ZM123.728 11.944C124.475 11.3499 124.832 10.515 124.832 9.51931H123.631C123.631 10.199 123.403 10.6671 122.98 11.0038L123.728 11.944ZM124.832 9.51931C124.832 8.52078 124.556 7.66578 123.903 7.07091C123.261 6.48565 122.356 6.24599 121.3 6.24599V7.44738C122.197 7.44738 122.759 7.65316 123.094 7.95877C123.419 8.25477 123.631 8.73609 123.631 9.51931H124.832ZM121.3 6.24599C121.181 6.24599 121.042 6.25428 120.886 6.2684L120.995 7.46486C121.132 7.45238 121.232 7.44738 121.3 7.44738V6.24599ZM120.941 6.26593C120.789 6.26593 120.609 6.27342 120.402 6.28721L120.482 7.48594C120.674 7.47314 120.826 7.46732 120.941 7.46732V6.26593ZM119.841 6.88657V12.172H121.043V6.88657H119.841ZM151.177 31V31.6007H151.778V31H151.177ZM136.617 31H136.017V31.6007H136.617V31ZM136.617 0.205022V-0.395673H136.017V0.205022H136.617ZM144.934 0.205022H145.535V-0.395673H144.934V0.205022ZM144.934 23.6004H144.334V24.2011H144.934V23.6004ZM151.177 23.6004H151.778V22.9997H151.177V23.6004ZM151.177 30.3993H136.617V31.6007H151.177V30.3993ZM137.218 31V0.205022H136.017V31H137.218ZM136.617 0.805716H144.934V-0.395673H136.617V0.805716ZM144.334 0.205022V23.6004H145.535V0.205022H144.334ZM144.934 24.2011H151.177V22.9997H144.934V24.2011ZM150.576 23.6004V31H151.778V23.6004H150.576ZM153.65 31H153.05V31.6007H153.65V31ZM153.65 0.205022V-0.395673H153.05V0.205022H153.65ZM169.108 0.205022H169.708V-0.395673H169.108V0.205022ZM169.108 7.44503V8.04573H169.708V7.44503H169.108ZM161.967 7.44503V6.84434H161.367V7.44503H161.967ZM161.967 11.9326H161.367V12.5333H161.967V11.9326ZM168.37 11.9326H168.97V11.3319H168.37V11.9326ZM168.37 18.8934V19.4941H168.97V18.8934H168.37ZM161.967 18.8934V18.2927H161.367V18.8934H161.967ZM161.967 23.6004H161.367V24.2011H161.967V23.6004ZM169.108 23.6004H169.708V22.9997H169.108V23.6004ZM169.108 31V31.6007H169.708V31H169.108ZM154.251 31V0.205022H153.05V31H154.251ZM153.65 0.805716H169.108V-0.395673H153.65V0.805716ZM168.507 0.205022V7.44503H169.708V0.205022H168.507ZM169.108 6.84434H161.967V8.04573H169.108V6.84434ZM161.367 7.44503V11.9326H162.568V7.44503H161.367ZM161.967 12.5333H168.37V11.3319H161.967V12.5333ZM167.769 11.9326V18.8934H168.97V11.9326H167.769ZM168.37 18.2927H161.967V19.4941H168.37V18.2927ZM161.367 18.8934V23.6004H162.568V18.8934H161.367ZM161.967 24.2011H169.108V22.9997H161.967V24.2011ZM168.507 23.6004V31H169.708V23.6004H168.507ZM169.108 30.3993H153.65V31.6007H169.108V30.3993Z" fill="white"/>
</svg>
